<svg width="292" height="627" viewBox="0 0 292 627" fill="none" xmlns="http://www.w3.org/2000/svg">
<mask id="path-1-outside-1_400_18" maskUnits="userSpaceOnUse" x="0" y="-0.00109863" width="292" height="627" fill="black">
<rect fill="white" y="-0.00109863" width="292" height="627"/>
<path d="M132.769 2.2613C140.133 1.16068 149.631 3.54642 154.955 8.96592C158.432 12.5059 159.144 15.1951 161.546 18.9987C167.94 29.1244 167.349 35.4109 167.147 47.0498C172.119 50.0183 171.936 55.7476 169.91 60.7459C168.165 65.0509 165.818 63.0559 162.95 64.0242C162.249 65.2287 161.392 67.245 161.17 69.0289C160.36 75.5355 159.873 86.9232 162.039 93.0304C162.864 94.5552 165.026 96.6192 166.475 97.3662C178.736 103.686 191.524 108.241 203.677 114.915C211.841 119.398 212.961 118.47 218.165 126.714C227.178 140.992 228.4 154.359 231.131 170.472C231.655 173.588 234.165 177.62 234.713 180.611C236.085 188.101 236.56 193.002 240.958 199.446C247.889 196.537 256.562 188.71 256.259 180.615C256.093 176.201 256.37 172.662 257.586 168.401C256.921 167.7 256.279 166.978 255.66 166.236C253.214 163.263 253.546 161.444 253.91 157.892C255.92 155.388 257.031 152.615 258.549 149.827C259.763 147.597 258.62 146.609 258.934 144.196C260.465 141.05 266.2 141.522 269.186 140.847C270.308 140.593 271.938 139.909 273.029 139.459C278.62 141.182 287.219 147.933 289.392 153.406C290.111 156.902 285.434 163.86 283.839 166.681C279.218 174.853 277.05 183.403 273.164 191.805C266.766 205.639 265.246 217.249 253.965 228.584C247.197 235.386 245.231 242.824 234.464 245.978C233.784 245.789 233.113 245.571 232.452 245.324C229.261 244.132 220.635 239.903 218.491 236.883C211.131 226.184 207.396 212.581 201.901 200.799C201.047 198.967 200.244 194.45 198.649 193.899C198.57 193.999 198.491 194.099 198.411 194.199C197.354 198.518 197.462 204.915 196.909 209.254C195.612 219.853 192.636 231.089 193.046 241.795C193.335 249.312 196.719 257.203 196.125 265.011C195.766 269.724 191.556 272.88 191.776 277.446C191.738 281.626 197.588 286.491 197.543 290.418C197.46 297.685 196.259 303.34 197.973 310.724C198.551 313.214 198.024 317.939 198.566 320.913C199.947 328.48 202.058 335.748 204.053 343.161C206.099 351.475 208.121 360.205 209.873 368.575C212.071 379.068 213.101 389.86 214.57 400.435C215.4 406.413 217.811 412.889 218.397 419.185C218.897 424.57 217.617 430.66 218.411 435.745C219.202 440.088 221.556 444.254 222.336 448.581C223.482 454.949 221.503 460.919 224.151 467.076C225.097 469.863 226.686 473.178 226.949 476.121C228.48 493.214 230.167 510.363 231.32 527.481C231.734 533.628 229.772 540.621 230.322 546.861C230.761 551.834 232.702 556.495 233.222 561.441C233.783 566.41 231.887 573.528 232.862 577.746C235.483 589.101 248.367 597.044 251.625 607.904C252.914 612.201 252.937 616.953 250.753 620.969C246.526 624.246 241.476 624.723 236.354 624.629C228.345 624.486 220.523 622.791 217.007 614.699C215.59 611.83 214.18 607.87 212.029 605.493C207.281 600.239 198.932 599.354 200.165 590.47C200.446 588.441 200.537 585.22 200.611 583.03C191.426 567.91 193.287 565.825 191.204 548.553C190.637 544.319 188.581 539.778 188.121 535.589C186.452 520.083 184.632 504.629 182.087 489.243C180.915 482.159 181.215 474.37 177.942 467.736C175.601 462.993 171.769 459.434 169.596 454.405C167.032 448.473 165.429 442.39 163.138 436.364C160.898 430.769 157.593 425.44 155.205 419.886C148.409 404.219 142.559 389.474 132.08 375.726C128.26 372.018 124.139 371.05 119.78 374.781C116.816 377.294 115.135 381.134 113.078 384.284C105.284 396.231 100.564 409.105 95.208 422.2C93.1016 427.349 88.7385 432.415 86.8519 437.909C84.906 443.579 83.9299 449.493 81.624 455.02C80.394 458.481 74.6937 463.139 74.3959 466.585C73.3197 479.039 73.5469 492.201 72.726 504.674C71.8467 518.035 69.9345 530.755 68.8106 544.045C68.2556 550.608 69.051 557.121 68.538 563.669C68.2489 567.82 65.1773 573.663 65.1881 576.955C65.2073 582.85 66.6439 586.221 66.2607 592.626C61.4344 599.556 53.8403 599.545 48.0139 604.049C41.1469 609.359 38.0937 615.104 28.9482 617.71C22.0174 619.686 13.7213 621.426 6.64728 618.471C5.0284 617.793 3.3934 615.963 2.95128 614.226C0.915028 602.44 11.385 596.376 18.2352 589.281C22.5012 584.864 26.7259 580.18 29.4229 575.358C28.6864 571.754 27.7373 557.084 28.908 554.129C33.1737 543.359 29.076 541.608 28.149 531.235C27.2952 521.68 28.0347 510.288 27.7744 500.466C27.5745 492.918 27.4227 484.825 27.3777 477.224C26.6535 473.545 30.7992 463.413 30.4035 460.848C28.782 450.34 31.1254 445.608 33.7958 435.888C34.7209 432.52 32.2459 424.66 32.514 420.846C32.6359 419.11 32.4113 416.823 32.7488 415C34.0358 408.048 36.2408 401.065 37.3095 394.075C41.4533 366.963 48.5948 340.728 55.2244 314.17C56.1889 310.308 57.15 302.673 58.7798 299.47C63.4204 290.35 63.1864 283.086 64.2364 273.219C64.5349 270.465 67.6301 265.427 68.7765 262.586C70.6005 258.064 68.8343 254.232 69.2093 249.599C69.4373 245.945 71.1645 242.551 71.5062 238.77C72.9585 222.69 73.8855 205.743 72.3705 189.653C72.3484 189.417 71.9899 189.396 71.6344 189.278C70.6058 189.986 54.8412 221.021 51.7797 225.404C45.7988 233.966 43.6414 234.959 32.4184 237.884C30.2843 238.44 28.599 237.885 26.8437 236.744C24.9713 235.526 21.5393 231.622 20.5943 229.625C16.6035 221.196 10.3103 207.05 8.43378 198.384C7.23265 192.839 7.82553 181.256 7.33953 175.081C6.89703 169.461 6.61015 163.825 6.09752 158.197C5.74202 154.293 6.05028 150.154 5.53053 146.16C4.83603 140.821 3.73728 135.515 2.7694 130.281C2.3269 127.887 1.23603 122.07 2.86428 120.354C6.29553 116.736 18.2243 112.971 22.8101 112.346C24.1391 113.28 25.2957 114.806 26.5527 115.647C29.628 117.707 31.8102 118.724 34.6988 121.175C34.0009 124.962 34.0808 126.224 34.14 130.085C38.5965 136.339 34.0185 138.752 29.0412 142.501C28.74 149.53 28.545 150.927 25.8368 157.619C22.9665 164.712 27.5022 173.52 30.4223 179.966C31.0774 181.412 31.9564 183.386 33.471 183.902C35.2564 182.788 35.4135 179.213 36.0728 177.337C37.5083 173.255 39.4279 169.369 40.6894 165.216C43.5203 155.897 45.1939 146.045 49.6647 137.301C53.5294 129.744 59.7563 118.985 67.4014 114.948C70.2518 113.444 73.8398 112.684 76.9088 111.689C83.1353 109.67 112.279 99.5224 114.629 94.6504C116.517 90.7369 115.633 76.2765 114.816 71.7882C114.372 69.3443 113.522 67.0264 112.676 64.6981C111.93 64.8196 111.181 64.9238 110.429 65.0108C102.778 65.8294 103.049 52.6246 107.155 47.7391C107.285 31.4468 108.467 23.8711 118.109 10.3054C121.442 5.61531 127.134 3.01168 132.769 2.2613Z"/>
</mask>
<path d="M132.769 2.2613C140.133 1.16068 149.631 3.54642 154.955 8.96592C158.432 12.5059 159.144 15.1951 161.546 18.9987C167.94 29.1244 167.349 35.4109 167.147 47.0498C172.119 50.0183 171.936 55.7476 169.91 60.7459C168.165 65.0509 165.818 63.0559 162.95 64.0242C162.249 65.2287 161.392 67.245 161.17 69.0289C160.36 75.5355 159.873 86.9232 162.039 93.0304C162.864 94.5552 165.026 96.6192 166.475 97.3662C178.736 103.686 191.524 108.241 203.677 114.915C211.841 119.398 212.961 118.47 218.165 126.714C227.178 140.992 228.4 154.359 231.131 170.472C231.655 173.588 234.165 177.62 234.713 180.611C236.085 188.101 236.56 193.002 240.958 199.446C247.889 196.537 256.562 188.71 256.259 180.615C256.093 176.201 256.37 172.662 257.586 168.401C256.921 167.7 256.279 166.978 255.66 166.236C253.214 163.263 253.546 161.444 253.91 157.892C255.92 155.388 257.031 152.615 258.549 149.827C259.763 147.597 258.62 146.609 258.934 144.196C260.465 141.05 266.2 141.522 269.186 140.847C270.308 140.593 271.938 139.909 273.029 139.459C278.62 141.182 287.219 147.933 289.392 153.406C290.111 156.902 285.434 163.86 283.839 166.681C279.218 174.853 277.05 183.403 273.164 191.805C266.766 205.639 265.246 217.249 253.965 228.584C247.197 235.386 245.231 242.824 234.464 245.978C233.784 245.789 233.113 245.571 232.452 245.324C229.261 244.132 220.635 239.903 218.491 236.883C211.131 226.184 207.396 212.581 201.901 200.799C201.047 198.967 200.244 194.45 198.649 193.899C198.57 193.999 198.491 194.099 198.411 194.199C197.354 198.518 197.462 204.915 196.909 209.254C195.612 219.853 192.636 231.089 193.046 241.795C193.335 249.312 196.719 257.203 196.125 265.011C195.766 269.724 191.556 272.88 191.776 277.446C191.738 281.626 197.588 286.491 197.543 290.418C197.46 297.685 196.259 303.34 197.973 310.724C198.551 313.214 198.024 317.939 198.566 320.913C199.947 328.48 202.058 335.748 204.053 343.161C206.099 351.475 208.121 360.205 209.873 368.575C212.071 379.068 213.101 389.86 214.57 400.435C215.4 406.413 217.811 412.889 218.397 419.185C218.897 424.57 217.617 430.66 218.411 435.745C219.202 440.088 221.556 444.254 222.336 448.581C223.482 454.949 221.503 460.919 224.151 467.076C225.097 469.863 226.686 473.178 226.949 476.121C228.48 493.214 230.167 510.363 231.32 527.481C231.734 533.628 229.772 540.621 230.322 546.861C230.761 551.834 232.702 556.495 233.222 561.441C233.783 566.41 231.887 573.528 232.862 577.746C235.483 589.101 248.367 597.044 251.625 607.904C252.914 612.201 252.937 616.953 250.753 620.969C246.526 624.246 241.476 624.723 236.354 624.629C228.345 624.486 220.523 622.791 217.007 614.699C215.59 611.83 214.18 607.87 212.029 605.493C207.281 600.239 198.932 599.354 200.165 590.47C200.446 588.441 200.537 585.22 200.611 583.03C191.426 567.91 193.287 565.825 191.204 548.553C190.637 544.319 188.581 539.778 188.121 535.589C186.452 520.083 184.632 504.629 182.087 489.243C180.915 482.159 181.215 474.37 177.942 467.736C175.601 462.993 171.769 459.434 169.596 454.405C167.032 448.473 165.429 442.39 163.138 436.364C160.898 430.769 157.593 425.44 155.205 419.886C148.409 404.219 142.559 389.474 132.08 375.726C128.26 372.018 124.139 371.05 119.78 374.781C116.816 377.294 115.135 381.134 113.078 384.284C105.284 396.231 100.564 409.105 95.208 422.2C93.1016 427.349 88.7385 432.415 86.8519 437.909C84.906 443.579 83.9299 449.493 81.624 455.02C80.394 458.481 74.6937 463.139 74.3959 466.585C73.3197 479.039 73.5469 492.201 72.726 504.674C71.8467 518.035 69.9345 530.755 68.8106 544.045C68.2556 550.608 69.051 557.121 68.538 563.669C68.2489 567.82 65.1773 573.663 65.1881 576.955C65.2073 582.85 66.6439 586.221 66.2607 592.626C61.4344 599.556 53.8403 599.545 48.0139 604.049C41.1469 609.359 38.0937 615.104 28.9482 617.71C22.0174 619.686 13.7213 621.426 6.64728 618.471C5.0284 617.793 3.3934 615.963 2.95128 614.226C0.915028 602.44 11.385 596.376 18.2352 589.281C22.5012 584.864 26.7259 580.18 29.4229 575.358C28.6864 571.754 27.7373 557.084 28.908 554.129C33.1737 543.359 29.076 541.608 28.149 531.235C27.2952 521.68 28.0347 510.288 27.7744 500.466C27.5745 492.918 27.4227 484.825 27.3777 477.224C26.6535 473.545 30.7992 463.413 30.4035 460.848C28.782 450.34 31.1254 445.608 33.7958 435.888C34.7209 432.52 32.2459 424.66 32.514 420.846C32.6359 419.11 32.4113 416.823 32.7488 415C34.0358 408.048 36.2408 401.065 37.3095 394.075C41.4533 366.963 48.5948 340.728 55.2244 314.17C56.1889 310.308 57.15 302.673 58.7798 299.47C63.4204 290.35 63.1864 283.086 64.2364 273.219C64.5349 270.465 67.6301 265.427 68.7765 262.586C70.6005 258.064 68.8343 254.232 69.2093 249.599C69.4373 245.945 71.1645 242.551 71.5062 238.77C72.9585 222.69 73.8855 205.743 72.3705 189.653C72.3484 189.417 71.9899 189.396 71.6344 189.278C70.6058 189.986 54.8412 221.021 51.7797 225.404C45.7988 233.966 43.6414 234.959 32.4184 237.884C30.2843 238.44 28.599 237.885 26.8437 236.744C24.9713 235.526 21.5393 231.622 20.5943 229.625C16.6035 221.196 10.3103 207.05 8.43378 198.384C7.23265 192.839 7.82553 181.256 7.33953 175.081C6.89703 169.461 6.61015 163.825 6.09752 158.197C5.74202 154.293 6.05028 150.154 5.53053 146.16C4.83603 140.821 3.73728 135.515 2.7694 130.281C2.3269 127.887 1.23603 122.07 2.86428 120.354C6.29553 116.736 18.2243 112.971 22.8101 112.346C24.1391 113.28 25.2957 114.806 26.5527 115.647C29.628 117.707 31.8102 118.724 34.6988 121.175C34.0009 124.962 34.0808 126.224 34.14 130.085C38.5965 136.339 34.0185 138.752 29.0412 142.501C28.74 149.53 28.545 150.927 25.8368 157.619C22.9665 164.712 27.5022 173.52 30.4223 179.966C31.0774 181.412 31.9564 183.386 33.471 183.902C35.2564 182.788 35.4135 179.213 36.0728 177.337C37.5083 173.255 39.4279 169.369 40.6894 165.216C43.5203 155.897 45.1939 146.045 49.6647 137.301C53.5294 129.744 59.7563 118.985 67.4014 114.948C70.2518 113.444 73.8398 112.684 76.9088 111.689C83.1353 109.67 112.279 99.5224 114.629 94.6504C116.517 90.7369 115.633 76.2765 114.816 71.7882C114.372 69.3443 113.522 67.0264 112.676 64.6981C111.93 64.8196 111.181 64.9238 110.429 65.0108C102.778 65.8294 103.049 52.6246 107.155 47.7391C107.285 31.4468 108.467 23.8711 118.109 10.3054C121.442 5.61531 127.134 3.01168 132.769 2.2613Z" fill="#012457"/>
<path d="M132.769 2.2613C140.133 1.16068 149.631 3.54642 154.955 8.96592C158.432 12.5059 159.144 15.1951 161.546 18.9987C167.94 29.1244 167.349 35.4109 167.147 47.0498C172.119 50.0183 171.936 55.7476 169.91 60.7459C168.165 65.0509 165.818 63.0559 162.95 64.0242C162.249 65.2287 161.392 67.245 161.17 69.0289C160.36 75.5355 159.873 86.9232 162.039 93.0304C162.864 94.5552 165.026 96.6192 166.475 97.3662C178.736 103.686 191.524 108.241 203.677 114.915C211.841 119.398 212.961 118.47 218.165 126.714C227.178 140.992 228.4 154.359 231.131 170.472C231.655 173.588 234.165 177.62 234.713 180.611C236.085 188.101 236.56 193.002 240.958 199.446C247.889 196.537 256.562 188.71 256.259 180.615C256.093 176.201 256.37 172.662 257.586 168.401C256.921 167.7 256.279 166.978 255.66 166.236C253.214 163.263 253.546 161.444 253.91 157.892C255.92 155.388 257.031 152.615 258.549 149.827C259.763 147.597 258.62 146.609 258.934 144.196C260.465 141.05 266.2 141.522 269.186 140.847C270.308 140.593 271.938 139.909 273.029 139.459C278.62 141.182 287.219 147.933 289.392 153.406C290.111 156.902 285.434 163.86 283.839 166.681C279.218 174.853 277.05 183.403 273.164 191.805C266.766 205.639 265.246 217.249 253.965 228.584C247.197 235.386 245.231 242.824 234.464 245.978C233.784 245.789 233.113 245.571 232.452 245.324C229.261 244.132 220.635 239.903 218.491 236.883C211.131 226.184 207.396 212.581 201.901 200.799C201.047 198.967 200.244 194.45 198.649 193.899C198.57 193.999 198.491 194.099 198.411 194.199C197.354 198.518 197.462 204.915 196.909 209.254C195.612 219.853 192.636 231.089 193.046 241.795C193.335 249.312 196.719 257.203 196.125 265.011C195.766 269.724 191.556 272.88 191.776 277.446C191.738 281.626 197.588 286.491 197.543 290.418C197.46 297.685 196.259 303.34 197.973 310.724C198.551 313.214 198.024 317.939 198.566 320.913C199.947 328.48 202.058 335.748 204.053 343.161C206.099 351.475 208.121 360.205 209.873 368.575C212.071 379.068 213.101 389.86 214.57 400.435C215.4 406.413 217.811 412.889 218.397 419.185C218.897 424.57 217.617 430.66 218.411 435.745C219.202 440.088 221.556 444.254 222.336 448.581C223.482 454.949 221.503 460.919 224.151 467.076C225.097 469.863 226.686 473.178 226.949 476.121C228.48 493.214 230.167 510.363 231.32 527.481C231.734 533.628 229.772 540.621 230.322 546.861C230.761 551.834 232.702 556.495 233.222 561.441C233.783 566.41 231.887 573.528 232.862 577.746C235.483 589.101 248.367 597.044 251.625 607.904C252.914 612.201 252.937 616.953 250.753 620.969C246.526 624.246 241.476 624.723 236.354 624.629C228.345 624.486 220.523 622.791 217.007 614.699C215.59 611.83 214.18 607.87 212.029 605.493C207.281 600.239 198.932 599.354 200.165 590.47C200.446 588.441 200.537 585.22 200.611 583.03C191.426 567.91 193.287 565.825 191.204 548.553C190.637 544.319 188.581 539.778 188.121 535.589C186.452 520.083 184.632 504.629 182.087 489.243C180.915 482.159 181.215 474.37 177.942 467.736C175.601 462.993 171.769 459.434 169.596 454.405C167.032 448.473 165.429 442.39 163.138 436.364C160.898 430.769 157.593 425.44 155.205 419.886C148.409 404.219 142.559 389.474 132.08 375.726C128.26 372.018 124.139 371.05 119.78 374.781C116.816 377.294 115.135 381.134 113.078 384.284C105.284 396.231 100.564 409.105 95.208 422.2C93.1016 427.349 88.7385 432.415 86.8519 437.909C84.906 443.579 83.9299 449.493 81.624 455.02C80.394 458.481 74.6937 463.139 74.3959 466.585C73.3197 479.039 73.5469 492.201 72.726 504.674C71.8467 518.035 69.9345 530.755 68.8106 544.045C68.2556 550.608 69.051 557.121 68.538 563.669C68.2489 567.82 65.1773 573.663 65.1881 576.955C65.2073 582.85 66.6439 586.221 66.2607 592.626C61.4344 599.556 53.8403 599.545 48.0139 604.049C41.1469 609.359 38.0937 615.104 28.9482 617.71C22.0174 619.686 13.7213 621.426 6.64728 618.471C5.0284 617.793 3.3934 615.963 2.95128 614.226C0.915028 602.44 11.385 596.376 18.2352 589.281C22.5012 584.864 26.7259 580.18 29.4229 575.358C28.6864 571.754 27.7373 557.084 28.908 554.129C33.1737 543.359 29.076 541.608 28.149 531.235C27.2952 521.68 28.0347 510.288 27.7744 500.466C27.5745 492.918 27.4227 484.825 27.3777 477.224C26.6535 473.545 30.7992 463.413 30.4035 460.848C28.782 450.34 31.1254 445.608 33.7958 435.888C34.7209 432.52 32.2459 424.66 32.514 420.846C32.6359 419.11 32.4113 416.823 32.7488 415C34.0358 408.048 36.2408 401.065 37.3095 394.075C41.4533 366.963 48.5948 340.728 55.2244 314.17C56.1889 310.308 57.15 302.673 58.7798 299.47C63.4204 290.35 63.1864 283.086 64.2364 273.219C64.5349 270.465 67.6301 265.427 68.7765 262.586C70.6005 258.064 68.8343 254.232 69.2093 249.599C69.4373 245.945 71.1645 242.551 71.5062 238.77C72.9585 222.69 73.8855 205.743 72.3705 189.653C72.3484 189.417 71.9899 189.396 71.6344 189.278C70.6058 189.986 54.8412 221.021 51.7797 225.404C45.7988 233.966 43.6414 234.959 32.4184 237.884C30.2843 238.44 28.599 237.885 26.8437 236.744C24.9713 235.526 21.5393 231.622 20.5943 229.625C16.6035 221.196 10.3103 207.05 8.43378 198.384C7.23265 192.839 7.82553 181.256 7.33953 175.081C6.89703 169.461 6.61015 163.825 6.09752 158.197C5.74202 154.293 6.05028 150.154 5.53053 146.16C4.83603 140.821 3.73728 135.515 2.7694 130.281C2.3269 127.887 1.23603 122.07 2.86428 120.354C6.29553 116.736 18.2243 112.971 22.8101 112.346C24.1391 113.28 25.2957 114.806 26.5527 115.647C29.628 117.707 31.8102 118.724 34.6988 121.175C34.0009 124.962 34.0808 126.224 34.14 130.085C38.5965 136.339 34.0185 138.752 29.0412 142.501C28.74 149.53 28.545 150.927 25.8368 157.619C22.9665 164.712 27.5022 173.52 30.4223 179.966C31.0774 181.412 31.9564 183.386 33.471 183.902C35.2564 182.788 35.4135 179.213 36.0728 177.337C37.5083 173.255 39.4279 169.369 40.6894 165.216C43.5203 155.897 45.1939 146.045 49.6647 137.301C53.5294 129.744 59.7563 118.985 67.4014 114.948C70.2518 113.444 73.8398 112.684 76.9088 111.689C83.1353 109.67 112.279 99.5224 114.629 94.6504C116.517 90.7369 115.633 76.2765 114.816 71.7882C114.372 69.3443 113.522 67.0264 112.676 64.6981C111.93 64.8196 111.181 64.9238 110.429 65.0108C102.778 65.8294 103.049 52.6246 107.155 47.7391C107.285 31.4468 108.467 23.8711 118.109 10.3054C121.442 5.61531 127.134 3.01168 132.769 2.2613Z" stroke="white" stroke-width="4" mask="url(#path-1-outside-1_400_18)"/>
</svg>
