<svg width="268" height="618" viewBox="0 0 268 618" fill="none" xmlns="http://www.w3.org/2000/svg">
<mask id="path-1-outside-1_400_7" maskUnits="userSpaceOnUse" x="0" y="0" width="268" height="618" fill="black">
<rect fill="white" width="268" height="618"/>
<path d="M94.169 2.16439C101.291 1.3488 111.008 3.60231 116.739 8.16146C126.098 15.6074 127.064 26.5341 128.363 37.5633C137.158 43.5645 132.594 52.5206 129.416 60.2262C130.159 64.5887 131.416 69.064 134.748 72.1883C139.572 76.7134 145.18 76.2137 151.228 75.9683C158.116 75.6889 185.376 74.5117 190.818 76.4765C196.796 78.6353 205.479 85.9605 210.221 90.3445C214.308 94.1225 216.611 98.7443 220.018 103.023C226.373 111.005 233.782 118.627 239.159 127.316C241.389 130.919 242.112 135.307 244.408 139.012C249.908 147.882 262.971 167.911 265.107 177.604C265.623 179.946 265.475 182.394 265.11 184.747C264.517 188.568 263.195 192.365 262.197 196.101C260.257 203.356 258.47 210.663 255.897 217.727C253.919 223.198 251.628 228.551 249.035 233.759C246.121 239.644 240.033 251.626 238.584 257.827C237.511 262.418 243.75 275.031 244.085 280.037C244.287 283.053 243.143 283.953 241.127 286.111C243.14 310.595 232.614 332.738 224.09 354.785C222.873 357.934 221.712 363.009 220.707 366.407L212.785 392.674C210.651 399.542 208.043 405.98 205.801 412.749C204.912 415.427 205.908 421.003 205.874 424.013C205.851 426.041 205.564 427.656 205.246 429.681C205.716 430.182 206.175 430.693 206.621 431.218C212.455 437.962 213.028 442.478 216.307 450.45C218.765 456.425 221.397 461.667 223.417 467.972C228.447 483.67 231.904 499.709 235.532 515.772C236.545 520.254 236.611 525.39 237.682 529.933C238.734 534.391 242.49 538.109 243.778 542.438C245.756 549.087 246.259 555.92 247.477 562.853C249.097 572.075 252.23 581.962 252.045 591.342C252.007 593.332 250.33 595.445 248.821 596.584C245.884 598.799 241.939 600.51 238.816 602.497C224.427 611.644 209.706 617.193 192.306 615.383C189.594 615.1 183.941 614.262 182.437 611.944C177.688 604.63 193.035 594.259 197.091 589.999C200.872 586.028 206.194 580.616 207.459 575.477C208.256 572.239 206.426 566.131 205.54 562.924C203.979 559.666 205.924 550.985 204.619 548.266C201.83 542.451 198.453 538.46 196.136 532.032C192.467 521.852 189.773 512.053 186.951 501.635C185.703 497.027 183.458 492.374 181.76 487.92C179.911 483.394 177.91 478.844 175.781 474.464C172.531 467.771 167.709 460.433 164.408 454.093C160.125 445.866 154.025 429.006 153.097 420.001C151.902 408.403 155.104 391.049 156.519 378.799C147.83 388.274 140.776 400.673 134.382 411.723C132.307 415.308 128.624 418.198 126.616 422.152C127.177 431.524 131.831 438.453 136.368 446.251C138.942 450.747 141.346 455.337 143.578 460.01C149.659 472.995 154.771 488.694 160.416 502.262C163.11 509.204 166.638 512.357 169.801 518.297C172.35 523.086 173.247 528.532 175.251 533.539C178.068 540.573 181.809 545.12 183.443 553.064C184.17 556.599 185.25 562.917 183.105 566.06C181.716 568.094 178.995 568.718 176.717 569.11C168.319 570.562 159.463 569.853 150.966 570.562C140.427 571.445 101.196 578.568 93.0526 572.515C91.8408 571.612 91.0153 569.996 90.8537 568.51C89.9306 560.007 110.401 555.283 116.586 552.846C122.969 550.334 131.198 547.025 135.591 541.63C135.43 537.963 135.319 535.222 134.155 531.739C131.222 529.534 128.295 527.557 126.346 524.398C122.972 518.921 121.157 512.684 118.508 506.887C116.102 501.617 113.081 496.26 110.295 491.168C104.108 479.955 97.7583 468.834 91.2488 457.808C85.1596 447.71 76.4992 436.664 74.6449 424.834C74.0641 421.099 74.1292 417.288 74.8375 413.573C75.3863 410.683 76.3721 407.749 77.4199 404.995C82.7251 391.059 85.5686 376.298 90.2889 362.202C95.5703 346.398 102.053 331.136 110.502 316.78C115.222 308.761 119.812 300.032 122.224 291.122C122.752 289.174 124.524 285.617 124.753 283.887C125.735 276.49 125.023 274.859 129.699 268.488C128.451 263.595 125.092 259.867 123.86 255.643C118.87 238.53 112.24 222.662 104.507 206.644C101.717 200.864 99.4299 194.475 95.9302 189.004C92.7271 192.841 89.6409 196.755 86.3741 200.554C78.151 210.113 60.8423 229.486 47.7885 230.314C44.3762 230.531 41.4539 229.021 38.9615 226.794C30.8323 219.528 20.6319 190.624 17.4029 179.795C15.838 174.547 14.7775 169.161 13.2621 163.895C11.7387 158.603 9.75422 153.432 8.38053 148.099C6.84835 142.15 5.92563 135.971 4.66272 129.95C3.65036 125.123 2.32985 120.1 2.05886 115.175C1.91809 112.61 1.88161 109.487 3.73489 107.497C7.26625 103.704 19.1171 99.4059 24.2573 99.2818C25.9374 99.2413 27.1601 100.616 28.6766 101.12C30.67 101.783 32.4374 101.032 34.1533 102.728C37.9959 106.525 34.38 121.07 32.2114 125.627C30.2838 129.678 25.8652 132.683 25.9477 137.515C26.1893 151.644 41.1826 175.302 51.2797 185.151C54.8288 179.955 57.2864 174.69 60.3194 169.233C61.9562 166.289 65.1645 162.735 66.5214 159.74C68.0536 156.358 68.7715 150.95 70.1087 147.515C71.0917 144.99 74.0136 141.081 75.3815 138.451C76.956 135.424 78.6153 131.103 80.4601 128.401C83.8871 123.381 91.016 120.911 95.6619 116.871C99.9309 113.158 101.832 109.931 104.85 105.276C99.5962 95.2087 99.1705 99.7245 91.5422 94.3362C88.1506 91.9405 77.7921 78.3006 75.9017 74.3917C70.636 63.5046 68.8768 48.5023 66.7403 36.5692C65.4307 29.2559 64.7534 20.3103 69.9393 14.4707C76.2425 6.85169 84.5061 3.29216 94.169 2.16439ZM229.046 208.98C229.594 206.008 230.04 202.717 230.364 199.699C231.056 193.256 232.958 186.293 233.467 179.906C231.234 176.505 222.651 168.796 219.12 167.701C219.057 179.594 223.237 192.306 225.138 204.031C225.417 205.755 226.547 212.731 227.319 213.943L227.902 214.141C228.799 213.21 228.903 210.39 229.046 208.98Z"/>
</mask>
<path d="M94.169 2.16439C101.291 1.3488 111.008 3.60231 116.739 8.16146C126.098 15.6074 127.064 26.5341 128.363 37.5633C137.158 43.5645 132.594 52.5206 129.416 60.2262C130.159 64.5887 131.416 69.064 134.748 72.1883C139.572 76.7134 145.18 76.2137 151.228 75.9683C158.116 75.6889 185.376 74.5117 190.818 76.4765C196.796 78.6353 205.479 85.9605 210.221 90.3445C214.308 94.1225 216.611 98.7443 220.018 103.023C226.373 111.005 233.782 118.627 239.159 127.316C241.389 130.919 242.112 135.307 244.408 139.012C249.908 147.882 262.971 167.911 265.107 177.604C265.623 179.946 265.475 182.394 265.11 184.747C264.517 188.568 263.195 192.365 262.197 196.101C260.257 203.356 258.47 210.663 255.897 217.727C253.919 223.198 251.628 228.551 249.035 233.759C246.121 239.644 240.033 251.626 238.584 257.827C237.511 262.418 243.75 275.031 244.085 280.037C244.287 283.053 243.143 283.953 241.127 286.111C243.14 310.595 232.614 332.738 224.09 354.785C222.873 357.934 221.712 363.009 220.707 366.407L212.785 392.674C210.651 399.542 208.043 405.98 205.801 412.749C204.912 415.427 205.908 421.003 205.874 424.013C205.851 426.041 205.564 427.656 205.246 429.681C205.716 430.182 206.175 430.693 206.621 431.218C212.455 437.962 213.028 442.478 216.307 450.45C218.765 456.425 221.397 461.667 223.417 467.972C228.447 483.67 231.904 499.709 235.532 515.772C236.545 520.254 236.611 525.39 237.682 529.933C238.734 534.391 242.49 538.109 243.778 542.438C245.756 549.087 246.259 555.92 247.477 562.853C249.097 572.075 252.23 581.962 252.045 591.342C252.007 593.332 250.33 595.445 248.821 596.584C245.884 598.799 241.939 600.51 238.816 602.497C224.427 611.644 209.706 617.193 192.306 615.383C189.594 615.1 183.941 614.262 182.437 611.944C177.688 604.63 193.035 594.259 197.091 589.999C200.872 586.028 206.194 580.616 207.459 575.477C208.256 572.239 206.426 566.131 205.54 562.924C203.979 559.666 205.924 550.985 204.619 548.266C201.83 542.451 198.453 538.46 196.136 532.032C192.467 521.852 189.773 512.053 186.951 501.635C185.703 497.027 183.458 492.374 181.76 487.92C179.911 483.394 177.91 478.844 175.781 474.464C172.531 467.771 167.709 460.433 164.408 454.093C160.125 445.866 154.025 429.006 153.097 420.001C151.902 408.403 155.104 391.049 156.519 378.799C147.83 388.274 140.776 400.673 134.382 411.723C132.307 415.308 128.624 418.198 126.616 422.152C127.177 431.524 131.831 438.453 136.368 446.251C138.942 450.747 141.346 455.337 143.578 460.01C149.659 472.995 154.771 488.694 160.416 502.262C163.11 509.204 166.638 512.357 169.801 518.297C172.35 523.086 173.247 528.532 175.251 533.539C178.068 540.573 181.809 545.12 183.443 553.064C184.17 556.599 185.25 562.917 183.105 566.06C181.716 568.094 178.995 568.718 176.717 569.11C168.319 570.562 159.463 569.853 150.966 570.562C140.427 571.445 101.196 578.568 93.0526 572.515C91.8408 571.612 91.0153 569.996 90.8537 568.51C89.9306 560.007 110.401 555.283 116.586 552.846C122.969 550.334 131.198 547.025 135.591 541.63C135.43 537.963 135.319 535.222 134.155 531.739C131.222 529.534 128.295 527.557 126.346 524.398C122.972 518.921 121.157 512.684 118.508 506.887C116.102 501.617 113.081 496.26 110.295 491.168C104.108 479.955 97.7583 468.834 91.2488 457.808C85.1596 447.71 76.4992 436.664 74.6449 424.834C74.0641 421.099 74.1292 417.288 74.8375 413.573C75.3863 410.683 76.3721 407.749 77.4199 404.995C82.7251 391.059 85.5686 376.298 90.2889 362.202C95.5703 346.398 102.053 331.136 110.502 316.78C115.222 308.761 119.812 300.032 122.224 291.122C122.752 289.174 124.524 285.617 124.753 283.887C125.735 276.49 125.023 274.859 129.699 268.488C128.451 263.595 125.092 259.867 123.86 255.643C118.87 238.53 112.24 222.662 104.507 206.644C101.717 200.864 99.4299 194.475 95.9302 189.004C92.7271 192.841 89.6409 196.755 86.3741 200.554C78.151 210.113 60.8423 229.486 47.7885 230.314C44.3762 230.531 41.4539 229.021 38.9615 226.794C30.8323 219.528 20.6319 190.624 17.4029 179.795C15.838 174.547 14.7775 169.161 13.2621 163.895C11.7387 158.603 9.75422 153.432 8.38053 148.099C6.84835 142.15 5.92563 135.971 4.66272 129.95C3.65036 125.123 2.32985 120.1 2.05886 115.175C1.91809 112.61 1.88161 109.487 3.73489 107.497C7.26625 103.704 19.1171 99.4059 24.2573 99.2818C25.9374 99.2413 27.1601 100.616 28.6766 101.12C30.67 101.783 32.4374 101.032 34.1533 102.728C37.9959 106.525 34.38 121.07 32.2114 125.627C30.2838 129.678 25.8652 132.683 25.9477 137.515C26.1893 151.644 41.1826 175.302 51.2797 185.151C54.8288 179.955 57.2864 174.69 60.3194 169.233C61.9562 166.289 65.1645 162.735 66.5214 159.74C68.0536 156.358 68.7715 150.95 70.1087 147.515C71.0917 144.99 74.0136 141.081 75.3815 138.451C76.956 135.424 78.6153 131.103 80.4601 128.401C83.8871 123.381 91.016 120.911 95.6619 116.871C99.9309 113.158 101.832 109.931 104.85 105.276C99.5962 95.2087 99.1705 99.7245 91.5422 94.3362C88.1506 91.9405 77.7921 78.3006 75.9017 74.3917C70.636 63.5046 68.8768 48.5023 66.7403 36.5692C65.4307 29.2559 64.7534 20.3103 69.9393 14.4707C76.2425 6.85169 84.5061 3.29216 94.169 2.16439ZM229.046 208.98C229.594 206.008 230.04 202.717 230.364 199.699C231.056 193.256 232.958 186.293 233.467 179.906C231.234 176.505 222.651 168.796 219.12 167.701C219.057 179.594 223.237 192.306 225.138 204.031C225.417 205.755 226.547 212.731 227.319 213.943L227.902 214.141C228.799 213.21 228.903 210.39 229.046 208.98Z" fill="#012457"/>
<path d="M94.169 2.16439C101.291 1.3488 111.008 3.60231 116.739 8.16146C126.098 15.6074 127.064 26.5341 128.363 37.5633C137.158 43.5645 132.594 52.5206 129.416 60.2262C130.159 64.5887 131.416 69.064 134.748 72.1883C139.572 76.7134 145.18 76.2137 151.228 75.9683C158.116 75.6889 185.376 74.5117 190.818 76.4765C196.796 78.6353 205.479 85.9605 210.221 90.3445C214.308 94.1225 216.611 98.7443 220.018 103.023C226.373 111.005 233.782 118.627 239.159 127.316C241.389 130.919 242.112 135.307 244.408 139.012C249.908 147.882 262.971 167.911 265.107 177.604C265.623 179.946 265.475 182.394 265.11 184.747C264.517 188.568 263.195 192.365 262.197 196.101C260.257 203.356 258.47 210.663 255.897 217.727C253.919 223.198 251.628 228.551 249.035 233.759C246.121 239.644 240.033 251.626 238.584 257.827C237.511 262.418 243.75 275.031 244.085 280.037C244.287 283.053 243.143 283.953 241.127 286.111C243.14 310.595 232.614 332.738 224.09 354.785C222.873 357.934 221.712 363.009 220.707 366.407L212.785 392.674C210.651 399.542 208.043 405.98 205.801 412.749C204.912 415.427 205.908 421.003 205.874 424.013C205.851 426.041 205.564 427.656 205.246 429.681C205.716 430.182 206.175 430.693 206.621 431.218C212.455 437.962 213.028 442.478 216.307 450.45C218.765 456.425 221.397 461.667 223.417 467.972C228.447 483.67 231.904 499.709 235.532 515.772C236.545 520.254 236.611 525.39 237.682 529.933C238.734 534.391 242.49 538.109 243.778 542.438C245.756 549.087 246.259 555.92 247.477 562.853C249.097 572.075 252.23 581.962 252.045 591.342C252.007 593.332 250.33 595.445 248.821 596.584C245.884 598.799 241.939 600.51 238.816 602.497C224.427 611.644 209.706 617.193 192.306 615.383C189.594 615.1 183.941 614.262 182.437 611.944C177.688 604.63 193.035 594.259 197.091 589.999C200.872 586.028 206.194 580.616 207.459 575.477C208.256 572.239 206.426 566.131 205.54 562.924C203.979 559.666 205.924 550.985 204.619 548.266C201.83 542.451 198.453 538.46 196.136 532.032C192.467 521.852 189.773 512.053 186.951 501.635C185.703 497.027 183.458 492.374 181.76 487.92C179.911 483.394 177.91 478.844 175.781 474.464C172.531 467.771 167.709 460.433 164.408 454.093C160.125 445.866 154.025 429.006 153.097 420.001C151.902 408.403 155.104 391.049 156.519 378.799C147.83 388.274 140.776 400.673 134.382 411.723C132.307 415.308 128.624 418.198 126.616 422.152C127.177 431.524 131.831 438.453 136.368 446.251C138.942 450.747 141.346 455.337 143.578 460.01C149.659 472.995 154.771 488.694 160.416 502.262C163.11 509.204 166.638 512.357 169.801 518.297C172.35 523.086 173.247 528.532 175.251 533.539C178.068 540.573 181.809 545.12 183.443 553.064C184.17 556.599 185.25 562.917 183.105 566.06C181.716 568.094 178.995 568.718 176.717 569.11C168.319 570.562 159.463 569.853 150.966 570.562C140.427 571.445 101.196 578.568 93.0526 572.515C91.8408 571.612 91.0153 569.996 90.8537 568.51C89.9306 560.007 110.401 555.283 116.586 552.846C122.969 550.334 131.198 547.025 135.591 541.63C135.43 537.963 135.319 535.222 134.155 531.739C131.222 529.534 128.295 527.557 126.346 524.398C122.972 518.921 121.157 512.684 118.508 506.887C116.102 501.617 113.081 496.26 110.295 491.168C104.108 479.955 97.7583 468.834 91.2488 457.808C85.1596 447.71 76.4992 436.664 74.6449 424.834C74.0641 421.099 74.1292 417.288 74.8375 413.573C75.3863 410.683 76.3721 407.749 77.4199 404.995C82.7251 391.059 85.5686 376.298 90.2889 362.202C95.5703 346.398 102.053 331.136 110.502 316.78C115.222 308.761 119.812 300.032 122.224 291.122C122.752 289.174 124.524 285.617 124.753 283.887C125.735 276.49 125.023 274.859 129.699 268.488C128.451 263.595 125.092 259.867 123.86 255.643C118.87 238.53 112.24 222.662 104.507 206.644C101.717 200.864 99.4299 194.475 95.9302 189.004C92.7271 192.841 89.6409 196.755 86.3741 200.554C78.151 210.113 60.8423 229.486 47.7885 230.314C44.3762 230.531 41.4539 229.021 38.9615 226.794C30.8323 219.528 20.6319 190.624 17.4029 179.795C15.838 174.547 14.7775 169.161 13.2621 163.895C11.7387 158.603 9.75422 153.432 8.38053 148.099C6.84835 142.15 5.92563 135.971 4.66272 129.95C3.65036 125.123 2.32985 120.1 2.05886 115.175C1.91809 112.61 1.88161 109.487 3.73489 107.497C7.26625 103.704 19.1171 99.4059 24.2573 99.2818C25.9374 99.2413 27.1601 100.616 28.6766 101.12C30.67 101.783 32.4374 101.032 34.1533 102.728C37.9959 106.525 34.38 121.07 32.2114 125.627C30.2838 129.678 25.8652 132.683 25.9477 137.515C26.1893 151.644 41.1826 175.302 51.2797 185.151C54.8288 179.955 57.2864 174.69 60.3194 169.233C61.9562 166.289 65.1645 162.735 66.5214 159.74C68.0536 156.358 68.7715 150.95 70.1087 147.515C71.0917 144.99 74.0136 141.081 75.3815 138.451C76.956 135.424 78.6153 131.103 80.4601 128.401C83.8871 123.381 91.016 120.911 95.6619 116.871C99.9309 113.158 101.832 109.931 104.85 105.276C99.5962 95.2087 99.1705 99.7245 91.5422 94.3362C88.1506 91.9405 77.7921 78.3006 75.9017 74.3917C70.636 63.5046 68.8768 48.5023 66.7403 36.5692C65.4307 29.2559 64.7534 20.3103 69.9393 14.4707C76.2425 6.85169 84.5061 3.29216 94.169 2.16439ZM229.046 208.98C229.594 206.008 230.04 202.717 230.364 199.699C231.056 193.256 232.958 186.293 233.467 179.906C231.234 176.505 222.651 168.796 219.12 167.701C219.057 179.594 223.237 192.306 225.138 204.031C225.417 205.755 226.547 212.731 227.319 213.943L227.902 214.141C228.799 213.21 228.903 210.39 229.046 208.98Z" stroke="white" stroke-width="4" mask="url(#path-1-outside-1_400_7)"/>
</svg>
