<svg width="221" height="649" viewBox="0 0 221 649" fill="none" xmlns="http://www.w3.org/2000/svg">
<mask id="path-1-outside-1_400_16" maskUnits="userSpaceOnUse" x="0" y="-0.00012207" width="221" height="649" fill="black">
<rect fill="white" y="-0.00012207" width="221" height="649"/>
<path d="M46.0196 45.0917C44.6803 32.5787 42.6981 23.0961 51.3024 12.5312C61.8131 -0.375199 85.7466 -1.06707 98.6084 8.53068C103.477 12.1644 107.369 21.4689 108.385 27.2893C109.341 35.2779 108.748 43.8276 110.508 51.9114C111.44 56.1951 107.407 65.0184 105.609 68.8449C104.457 71.3724 103.806 74.7171 102.571 77.3357C100.751 81.1982 93.6756 94.3989 97.1221 98.4002C97.3168 98.6263 97.5291 98.8363 97.7572 99.0283C101.051 101.808 118.745 106.851 123.621 108.792C126.576 109.967 129.315 110.183 132.535 112.367C132.527 114.554 132.628 121.805 132.134 123.577C132.976 123.947 133.462 124.258 134.38 124.088C134.954 123.35 134.897 120.755 135.18 119.235C135.784 116.065 137.306 105.545 139.023 103.603C140.194 103.012 139.669 103.1 141.017 103.324C144.329 105.677 142.813 108.623 144.104 109.876C145.93 108.605 147.051 105.782 148.471 104.294C153.765 98.7411 160.853 88.8771 169.72 90.4648C176.461 91.6719 174.269 100.475 172.435 104.526C173.293 105.33 174.669 106.542 175.404 107.391C173.442 114.112 170.591 118.758 168.331 124.92C165.979 131.335 165.275 138.753 162.441 145.376C160.426 150.084 159.027 151.414 156.792 155.315C168.12 172.923 163.951 171.788 160.155 191.371C168.54 178.458 173.723 156.799 174.923 141.529C175.442 136.426 173.963 129.898 175.289 124.935C177.769 115.65 182.851 106.198 187.475 97.7781C188.181 96.4933 190.39 95.8236 191.812 96.2871C194.84 99.8829 188.71 111.31 187.681 115.265C193.435 113.404 198.269 110.012 202.361 105.547C205.888 101.697 205.987 92.1861 210.629 89.9357C216.871 89.8093 218.449 108.426 217.979 113.08C216.531 127.439 205.754 134.677 196.273 143.909C191.638 148.463 192.669 160.533 192.023 166.665C191.327 174.816 192.817 182.282 191.8 190.611C190.636 200.138 185.372 229.861 172.997 230.191C168.468 230.312 156.902 225.246 154.49 221.114C149.439 215.286 146.22 209.714 141.693 203.858C141.632 205.701 141.604 207.565 141.513 209.403C140.304 233.883 143.914 258.967 149.459 282.845C150.924 289.041 152.492 295.211 154.161 301.358C155.093 304.781 156.127 308.134 156.937 311.599C157.846 315.484 156.714 319.811 157.286 323.513C159.389 336.75 162.133 349.879 163.419 363.236C164.579 375.296 165.31 387.443 166.188 399.514C166.847 408.581 167.53 417.015 166.795 426.169C166.371 431.445 165.793 436.823 165.962 442.114C166.167 446.588 168.333 451.035 168.56 455.479C168.799 460.155 166.966 464.381 166.913 469.14C166.853 474.529 169.781 480.289 169.931 485.381C170.271 496.92 169.352 508.613 169.445 520.163C169.491 530.79 170.901 541.106 171.468 551.681C171.821 558.27 169.451 562.564 168.917 568.586C168.604 572.134 171.921 574.234 172.542 579.788C173.307 586.639 170.89 594.713 171.771 600.521C173.609 607.354 179.122 614.378 183.774 619.399C188.914 624.945 194.408 628.838 194.502 636.971C194.604 645.848 184.633 646.369 178.005 646.155C171.601 645.949 163.108 643.796 158.669 638.805C156.52 636.413 153.44 631.084 151.41 629.801C143.551 624.833 133.505 625.151 134.8 612.814C134.932 611.546 135.287 606.33 135.086 605.1C134.151 599.381 131.719 596.138 131.362 589.973C130.901 582.011 133.541 574.009 133.45 566.584C133.403 562.759 130.504 553.53 129.399 549.394C127.995 544.208 126.981 538.924 126.368 533.584C124.224 515.771 123.903 495.9 123.683 477.908C123.565 468.326 119.228 462.84 116.688 453.926C115.483 448.845 115.468 443.036 114.367 437.753C110.105 417.3 104.817 398.546 96.6963 379.174C92.2891 393.263 90.6572 405.795 89.0884 420.39C87.6902 433.391 86.0148 446.573 84.7855 459.626C84.4891 462.773 82.6862 466.564 81.7085 469.601C79.054 475.283 81.3825 480.986 81.4981 486.81C81.587 491.299 79.96 496.114 80.0553 500.771C80.3434 514.849 81.1537 528.994 81.6369 543.053C81.8672 549.758 78.8173 558.071 78.7077 564.911C78.4399 573.349 84.4253 580.046 83.1363 589.894C82.1715 597.263 80.3584 599.531 78.5765 606.12C77.612 609.686 78.5569 615.754 76.8061 620.509C76.3597 623.494 72.3686 625.894 71.2908 628.046C68.592 633.446 68.3872 640.204 62.135 643.268C50.6688 648.889 26.9732 648.251 33.5922 629.085C36.671 620.171 44.893 612.274 46.8081 602.599C45.6186 598.02 43.9473 592.714 44.1075 587.981C44.2031 585.146 45.5203 580.703 45.0101 578.07C43.6933 571.279 40.604 564.668 39.4583 557.779C37.4956 545.97 38.2151 533.955 37.5946 522.09C37.0521 511.71 35.2755 501.611 35.7103 491.111C35.9368 485.651 36.3116 480.315 37.1155 474.885C38.0575 468.529 39.6864 462.701 39.3705 456.199C39.0712 450.045 34.5271 444.761 34.1133 438.9C33.5033 430.268 36.5461 420.908 35.4788 412.208C34.8763 407.295 33.492 401.985 32.645 397.02C31.4021 389.865 30.2894 382.714 28.9618 375.574C28.4565 372.855 26.3774 369.038 26.2311 366.533C25.7476 358.271 25.4039 349.969 24.6855 341.704C24.3186 337.481 24.8221 332.963 24.5287 328.718C24.3985 325.71 22.7648 322.699 22.7059 319.241C22.6384 315.296 23.6351 309.461 23.4228 305.824C23.0597 299.595 21.0575 296.554 21.265 289.872C21.5231 281.549 26.272 275.401 27.0339 268.546C25.844 265.511 23.6809 260.074 23.6329 256.993C23.5121 249.286 28.0678 244.821 26.3557 236.344C23.4453 221.935 20.29 209.929 15.4904 196.092C12.3024 186.9 7.8502 176.959 4.95934 168.241C1.82089 158.774 0.432477 137.89 4.59132 128.601C9.72554 117.133 24.4098 110.2 34.8531 103.736C40.4472 100.274 49.9023 97.6232 52.9883 90.2117C54.8182 85.8163 53.0839 73.5039 51.9146 68.8866C46.7466 65.6803 44.2898 62.1298 42.8991 56.0893C41.7565 51.1262 41.9448 48.3178 46.0196 45.0917Z"/>
<path d="M77.5752 189.841C73.8313 182.112 69.7954 174.225 66.0185 166.473C64.372 163.095 60.6776 157.883 58.6 154.254C70.455 167.663 71.5061 168.472 78.9028 185.024C93.2494 177.85 101.197 172.751 113.101 162.427C113.885 163.547 115.257 163.992 116.526 164.559C105.456 176.027 91.5065 182.705 77.5752 189.841Z"/>
<path d="M132.134 123.577C132.976 123.947 133.462 124.258 134.38 124.088C134.954 123.35 134.897 120.755 135.18 119.235C135.057 143.335 141.08 139.005 123.453 157.823C122.909 156.12 122.577 155.534 121.19 154.488C124.315 150.554 127.918 147.935 130.977 143.383C134.826 137.652 130.478 128.269 132.134 123.577Z"/>
<path d="M121.19 154.488C122.577 155.534 122.909 156.12 123.453 157.823C121.215 160.125 118.99 162.506 116.526 164.559C115.257 163.992 113.885 163.547 113.101 162.427L121.19 154.488Z"/>
<path d="M100.497 218.352C115.25 206.617 120.929 201.307 132.813 185.89C139.949 176.632 147.943 161.846 156.337 155.274C154.512 160.143 150.936 165.005 148.132 169.411C137.608 185.941 125.947 202.004 111.43 215.281C108.252 218.188 104.659 221.914 101.158 224.434C100.34 223.328 100.512 219.84 100.497 218.352Z"/>
<path d="M54.3845 219.944C81.8098 241.404 77.7642 237.302 100.497 218.352C100.512 219.84 100.34 223.328 101.158 224.434C96.377 228.982 84.8263 238.55 78.0584 238.534C72.2643 238.519 58.7448 230.077 54.852 226.183C55.035 224.474 54.033 222.454 54.3845 219.944Z"/>
<path d="M54.852 226.183C47.1709 220.925 29.7631 204.881 24.7527 196.194C24.4218 195.62 24.7849 194.503 25.1398 193.869C26.7492 193.937 28.6849 196.483 29.8081 197.803C37.1227 206.402 45.7409 212.738 54.3845 219.944C54.033 222.454 55.035 224.474 54.852 226.183Z"/>
</mask>
<path d="M46.0196 45.0917C44.6803 32.5787 42.6981 23.0961 51.3024 12.5312C61.8131 -0.375199 85.7466 -1.06707 98.6084 8.53068C103.477 12.1644 107.369 21.4689 108.385 27.2893C109.341 35.2779 108.748 43.8276 110.508 51.9114C111.44 56.1951 107.407 65.0184 105.609 68.8449C104.457 71.3724 103.806 74.7171 102.571 77.3357C100.751 81.1982 93.6756 94.3989 97.1221 98.4002C97.3168 98.6263 97.5291 98.8363 97.7572 99.0283C101.051 101.808 118.745 106.851 123.621 108.792C126.576 109.967 129.315 110.183 132.535 112.367C132.527 114.554 132.628 121.805 132.134 123.577C132.976 123.947 133.462 124.258 134.38 124.088C134.954 123.35 134.897 120.755 135.18 119.235C135.784 116.065 137.306 105.545 139.023 103.603C140.194 103.012 139.669 103.1 141.017 103.324C144.329 105.677 142.813 108.623 144.104 109.876C145.93 108.605 147.051 105.782 148.471 104.294C153.765 98.7411 160.853 88.8771 169.72 90.4648C176.461 91.6719 174.269 100.475 172.435 104.526C173.293 105.33 174.669 106.542 175.404 107.391C173.442 114.112 170.591 118.758 168.331 124.92C165.979 131.335 165.275 138.753 162.441 145.376C160.426 150.084 159.027 151.414 156.792 155.315C168.12 172.923 163.951 171.788 160.155 191.371C168.54 178.458 173.723 156.799 174.923 141.529C175.442 136.426 173.963 129.898 175.289 124.935C177.769 115.65 182.851 106.198 187.475 97.7781C188.181 96.4933 190.39 95.8236 191.812 96.2871C194.84 99.8829 188.71 111.31 187.681 115.265C193.435 113.404 198.269 110.012 202.361 105.547C205.888 101.697 205.987 92.1861 210.629 89.9357C216.871 89.8093 218.449 108.426 217.979 113.08C216.531 127.439 205.754 134.677 196.273 143.909C191.638 148.463 192.669 160.533 192.023 166.665C191.327 174.816 192.817 182.282 191.8 190.611C190.636 200.138 185.372 229.861 172.997 230.191C168.468 230.312 156.902 225.246 154.49 221.114C149.439 215.286 146.22 209.714 141.693 203.858C141.632 205.701 141.604 207.565 141.513 209.403C140.304 233.883 143.914 258.967 149.459 282.845C150.924 289.041 152.492 295.211 154.161 301.358C155.093 304.781 156.127 308.134 156.937 311.599C157.846 315.484 156.714 319.811 157.286 323.513C159.389 336.75 162.133 349.879 163.419 363.236C164.579 375.296 165.31 387.443 166.188 399.514C166.847 408.581 167.53 417.015 166.795 426.169C166.371 431.445 165.793 436.823 165.962 442.114C166.167 446.588 168.333 451.035 168.56 455.479C168.799 460.155 166.966 464.381 166.913 469.14C166.853 474.529 169.781 480.289 169.931 485.381C170.271 496.92 169.352 508.613 169.445 520.163C169.491 530.79 170.901 541.106 171.468 551.681C171.821 558.27 169.451 562.564 168.917 568.586C168.604 572.134 171.921 574.234 172.542 579.788C173.307 586.639 170.89 594.713 171.771 600.521C173.609 607.354 179.122 614.378 183.774 619.399C188.914 624.945 194.408 628.838 194.502 636.971C194.604 645.848 184.633 646.369 178.005 646.155C171.601 645.949 163.108 643.796 158.669 638.805C156.52 636.413 153.44 631.084 151.41 629.801C143.551 624.833 133.505 625.151 134.8 612.814C134.932 611.546 135.287 606.33 135.086 605.1C134.151 599.381 131.719 596.138 131.362 589.973C130.901 582.011 133.541 574.009 133.45 566.584C133.403 562.759 130.504 553.53 129.399 549.394C127.995 544.208 126.981 538.924 126.368 533.584C124.224 515.771 123.903 495.9 123.683 477.908C123.565 468.326 119.228 462.84 116.688 453.926C115.483 448.845 115.468 443.036 114.367 437.753C110.105 417.3 104.817 398.546 96.6963 379.174C92.2891 393.263 90.6572 405.795 89.0884 420.39C87.6902 433.391 86.0148 446.573 84.7855 459.626C84.4891 462.773 82.6862 466.564 81.7085 469.601C79.054 475.283 81.3825 480.986 81.4981 486.81C81.587 491.299 79.96 496.114 80.0553 500.771C80.3434 514.849 81.1537 528.994 81.6369 543.053C81.8672 549.758 78.8173 558.071 78.7077 564.911C78.4399 573.349 84.4253 580.046 83.1363 589.894C82.1715 597.263 80.3584 599.531 78.5765 606.12C77.612 609.686 78.5569 615.754 76.8061 620.509C76.3597 623.494 72.3686 625.894 71.2908 628.046C68.592 633.446 68.3872 640.204 62.135 643.268C50.6688 648.889 26.9732 648.251 33.5922 629.085C36.671 620.171 44.893 612.274 46.8081 602.599C45.6186 598.02 43.9473 592.714 44.1075 587.981C44.2031 585.146 45.5203 580.703 45.0101 578.07C43.6933 571.279 40.604 564.668 39.4583 557.779C37.4956 545.97 38.2151 533.955 37.5946 522.09C37.0521 511.71 35.2755 501.611 35.7103 491.111C35.9368 485.651 36.3116 480.315 37.1155 474.885C38.0575 468.529 39.6864 462.701 39.3705 456.199C39.0712 450.045 34.5271 444.761 34.1133 438.9C33.5033 430.268 36.5461 420.908 35.4788 412.208C34.8763 407.295 33.492 401.985 32.645 397.02C31.4021 389.865 30.2894 382.714 28.9618 375.574C28.4565 372.855 26.3774 369.038 26.2311 366.533C25.7476 358.271 25.4039 349.969 24.6855 341.704C24.3186 337.481 24.8221 332.963 24.5287 328.718C24.3985 325.71 22.7648 322.699 22.7059 319.241C22.6384 315.296 23.6351 309.461 23.4228 305.824C23.0597 299.595 21.0575 296.554 21.265 289.872C21.5231 281.549 26.272 275.401 27.0339 268.546C25.844 265.511 23.6809 260.074 23.6329 256.993C23.5121 249.286 28.0678 244.821 26.3557 236.344C23.4453 221.935 20.29 209.929 15.4904 196.092C12.3024 186.9 7.8502 176.959 4.95934 168.241C1.82089 158.774 0.432477 137.89 4.59132 128.601C9.72554 117.133 24.4098 110.2 34.8531 103.736C40.4472 100.274 49.9023 97.6232 52.9883 90.2117C54.8182 85.8163 53.0839 73.5039 51.9146 68.8866C46.7466 65.6803 44.2898 62.1298 42.8991 56.0893C41.7565 51.1262 41.9448 48.3178 46.0196 45.0917Z" fill="#012457"/>
<path d="M77.5752 189.841C73.8313 182.112 69.7954 174.225 66.0185 166.473C64.372 163.095 60.6776 157.883 58.6 154.254C70.455 167.663 71.5061 168.472 78.9028 185.024C93.2494 177.85 101.197 172.751 113.101 162.427C113.885 163.547 115.257 163.992 116.526 164.559C105.456 176.027 91.5065 182.705 77.5752 189.841Z" fill="white"/>
<path d="M132.134 123.577C132.976 123.947 133.462 124.258 134.38 124.088C134.954 123.35 134.897 120.755 135.18 119.235C135.057 143.335 141.08 139.005 123.453 157.823C122.909 156.12 122.577 155.534 121.19 154.488C124.315 150.554 127.918 147.935 130.977 143.383C134.826 137.652 130.478 128.269 132.134 123.577Z" fill="white"/>
<path d="M121.19 154.488C122.577 155.534 122.909 156.12 123.453 157.823C121.215 160.125 118.99 162.506 116.526 164.559C115.257 163.992 113.885 163.547 113.101 162.427L121.19 154.488Z" fill="white"/>
<path d="M100.497 218.352C115.25 206.617 120.929 201.307 132.813 185.89C139.949 176.632 147.943 161.846 156.337 155.274C154.512 160.143 150.936 165.005 148.132 169.411C137.608 185.941 125.947 202.004 111.43 215.281C108.252 218.188 104.659 221.914 101.158 224.434C100.34 223.328 100.512 219.84 100.497 218.352Z" fill="white"/>
<path d="M54.3845 219.944C81.8098 241.404 77.7642 237.302 100.497 218.352C100.512 219.84 100.34 223.328 101.158 224.434C96.377 228.982 84.8263 238.55 78.0584 238.534C72.2643 238.519 58.7448 230.077 54.852 226.183C55.035 224.474 54.033 222.454 54.3845 219.944Z" fill="white"/>
<path d="M54.852 226.183C47.1709 220.925 29.7631 204.881 24.7527 196.194C24.4218 195.62 24.7849 194.503 25.1398 193.869C26.7492 193.937 28.6849 196.483 29.8081 197.803C37.1227 206.402 45.7409 212.738 54.3845 219.944C54.033 222.454 55.035 224.474 54.852 226.183Z" fill="white"/>
<path d="M134.38 124.088L134.562 125.071L134.936 125.002L135.17 124.702L134.38 124.088ZM132.134 123.577L131.731 124.492C132.468 124.816 133.275 125.31 134.562 125.071L134.38 124.088L134.198 123.105C133.649 123.206 133.484 123.078 132.536 122.661L132.134 123.577ZM134.38 124.088L135.17 124.702C135.46 124.328 135.601 123.836 135.685 123.442C135.777 123.015 135.837 122.528 135.884 122.054C135.985 121.047 136.032 120.123 136.163 119.418L135.18 119.235L134.197 119.052C134.045 119.867 133.979 121 133.894 121.856C133.849 122.312 133.797 122.708 133.73 123.022C133.655 123.37 133.587 123.479 133.591 123.474L134.38 124.088ZM113.101 162.427L112.282 163.001C112.798 163.738 113.486 164.22 114.158 164.581C114.799 164.926 115.553 165.22 116.118 165.472L116.526 164.559L116.933 163.646C116.23 163.331 115.663 163.119 115.105 162.819C114.577 162.536 114.188 162.236 113.92 161.854L113.101 162.427ZM123.453 157.823L124.405 157.519C124.131 156.66 123.878 155.972 123.472 155.357C123.056 154.729 122.523 154.241 121.792 153.689L121.19 154.488L120.588 155.286C121.244 155.781 121.571 156.109 121.804 156.461C122.046 156.826 122.231 157.283 122.5 158.127L123.453 157.823ZM101.158 224.434L101.962 223.839C101.893 223.746 101.784 223.501 101.693 223.034C101.607 222.594 101.554 222.061 101.525 221.485C101.465 220.311 101.505 219.151 101.497 218.342L100.497 218.352L99.4973 218.362C99.5041 219.041 99.4655 220.369 99.5276 221.587C99.5593 222.208 99.6181 222.847 99.7302 223.418C99.8369 223.963 100.014 224.568 100.354 225.028L101.158 224.434ZM54.852 226.183L55.8463 226.29C55.9571 225.255 55.7087 224.139 55.5396 223.189C55.3593 222.175 55.2222 221.173 55.3749 220.083L54.3845 219.944L53.3942 219.805C53.1954 221.225 53.3836 222.488 53.5706 223.539C53.7688 224.653 53.9299 225.402 53.8577 226.077L54.852 226.183ZM46.0196 45.0917L47.261 46.6597L48.1256 45.9753L48.0082 44.8788L46.0196 45.0917ZM51.3024 12.5312L52.8531 13.7942L52.8532 13.7941L51.3024 12.5312ZM98.6084 8.53068L99.8046 6.92784L99.8045 6.92777L98.6084 8.53068ZM108.385 27.2893L110.37 27.0516L110.364 26.9984L110.355 26.9457L108.385 27.2893ZM110.508 51.9114L108.553 52.3368L108.553 52.3369L110.508 51.9114ZM105.609 68.8449L103.799 67.9944L103.794 68.005L103.789 68.0156L105.609 68.8449ZM102.571 77.3357L100.762 76.4828L100.762 76.483L102.571 77.3357ZM97.1221 98.4002L98.6377 97.0952L98.6374 97.0949L97.1221 98.4002ZM97.7572 99.0283L99.0472 97.5L99.0452 97.4982L97.7572 99.0283ZM123.621 108.792L122.882 110.65L122.882 110.65L123.621 108.792ZM132.535 112.367L134.535 112.375L134.539 111.31L133.658 110.712L132.535 112.367ZM132.134 123.577L134.02 124.242L134.042 124.179L134.06 124.114L132.134 123.577ZM135.18 119.235L133.215 118.86L133.181 119.041L133.18 119.225L135.18 119.235ZM139.023 103.603L138.122 101.818L137.779 101.991L137.525 102.278L139.023 103.603ZM141.017 103.324L142.175 101.693L141.799 101.426L141.344 101.351L141.017 103.324ZM144.104 109.876L142.712 111.312L143.895 112.459L145.247 111.517L144.104 109.876ZM148.471 104.294L149.918 105.674L149.918 105.674L148.471 104.294ZM169.72 90.4648L170.073 88.4961L170.073 88.4961L169.72 90.4648ZM172.435 104.526L170.613 103.701L170.023 105.005L171.067 105.985L172.435 104.526ZM175.404 107.391L177.324 107.951L177.629 106.906L176.916 106.082L175.404 107.391ZM168.331 124.92L166.454 124.232L166.454 124.232L168.331 124.92ZM162.441 145.376L160.602 144.589V144.589L162.441 145.376ZM156.792 155.315L155.057 154.32L154.452 155.375L155.11 156.397L156.792 155.315ZM160.155 191.371L158.192 190.99L161.833 192.46L160.155 191.371ZM174.923 141.529L172.933 141.327L172.931 141.35L172.929 141.373L174.923 141.529ZM175.289 124.935L173.356 124.419L173.356 124.419L175.289 124.935ZM187.475 97.7781L185.722 96.8152V96.8152L187.475 97.7781ZM191.812 96.2871L193.342 94.9989L192.974 94.5624L192.432 94.3855L191.812 96.2871ZM187.681 115.265L185.746 114.762L184.828 118.291L188.297 117.168L187.681 115.265ZM202.361 105.547L203.835 106.898L203.835 106.898L202.361 105.547ZM210.629 89.9357L210.588 87.9361L210.151 87.945L209.757 88.136L210.629 89.9357ZM217.979 113.08L215.989 112.879V112.879L217.979 113.08ZM196.273 143.909L194.877 142.476L194.871 142.483L196.273 143.909ZM192.023 166.665L190.034 166.455L190.032 166.475L190.031 166.494L192.023 166.665ZM191.8 190.611L189.814 190.368V190.368L191.8 190.611ZM172.997 230.191L173.05 232.191H173.05L172.997 230.191ZM154.49 221.114L156.218 220.106L156.124 219.945L156.001 219.805L154.49 221.114ZM141.693 203.858L143.275 202.635L139.876 198.239L139.694 203.793L141.693 203.858ZM141.513 209.403L143.511 209.502L143.511 209.502L141.513 209.403ZM149.459 282.845L147.511 283.297L147.513 283.305L149.459 282.845ZM154.161 301.358L152.231 301.882L152.231 301.883L154.161 301.358ZM156.937 311.599L158.885 311.143L158.885 311.143L156.937 311.599ZM157.286 323.513L155.31 323.818L155.311 323.826L157.286 323.513ZM163.419 363.236L165.409 363.045L165.409 363.045L163.419 363.236ZM166.188 399.514L164.193 399.659V399.659L166.188 399.514ZM166.795 426.169L168.788 426.329L168.788 426.329L166.795 426.169ZM165.962 442.114L163.963 442.178L163.964 442.192L163.964 442.205L165.962 442.114ZM168.56 455.479L170.558 455.377V455.377L168.56 455.479ZM166.913 469.14L168.913 469.162V469.162L166.913 469.14ZM169.931 485.381L171.93 485.322V485.322L169.931 485.381ZM169.445 520.163L171.445 520.154L171.445 520.146L169.445 520.163ZM171.468 551.681L169.471 551.788V551.788L171.468 551.681ZM168.917 568.586L166.925 568.41L166.925 568.41L168.917 568.586ZM172.542 579.788L174.53 579.566L174.53 579.565L172.542 579.788ZM171.771 600.521L169.794 600.821L169.811 600.932L169.84 601.041L171.771 600.521ZM183.774 619.399L182.306 620.758L182.307 620.758L183.774 619.399ZM194.502 636.971L196.502 636.949V636.948L194.502 636.971ZM178.005 646.155L178.069 644.156H178.069L178.005 646.155ZM158.669 638.805L160.163 637.476L160.157 637.469L158.669 638.805ZM151.41 629.801L150.341 631.492L150.342 631.492L151.41 629.801ZM134.8 612.814L136.789 613.023L136.789 613.022L134.8 612.814ZM135.086 605.1L137.06 604.778L137.06 604.778L135.086 605.1ZM131.362 589.973L129.365 590.088L129.365 590.088L131.362 589.973ZM133.45 566.584L135.45 566.559V566.559L133.45 566.584ZM129.399 549.394L131.332 548.878L131.33 548.871L129.399 549.394ZM126.368 533.584L128.355 533.356L128.354 533.345L126.368 533.584ZM123.683 477.908L125.682 477.883V477.883L123.683 477.908ZM116.688 453.926L114.742 454.388L114.752 454.431L114.764 454.475L116.688 453.926ZM114.367 437.753L116.325 437.345V437.345L114.367 437.753ZM96.6963 379.174L98.5408 378.401L96.4229 373.349L94.7875 378.577L96.6963 379.174ZM89.0884 420.39L91.0769 420.604L91.0769 420.604L89.0884 420.39ZM84.7855 459.626L86.7766 459.814V459.814L84.7855 459.626ZM81.7085 469.601L83.5205 470.448L83.5738 470.334L83.6124 470.214L81.7085 469.601ZM81.4981 486.81L83.4977 486.771L83.4977 486.77L81.4981 486.81ZM80.0553 500.771L78.0557 500.812V500.812L80.0553 500.771ZM81.6369 543.053L83.6357 542.984V542.984L81.6369 543.053ZM78.7077 564.911L80.7067 564.975L80.7072 564.959L80.7075 564.943L78.7077 564.911ZM83.1363 589.894L85.1194 590.154L85.1194 590.154L83.1363 589.894ZM78.5765 606.12L76.6458 605.598V605.598L78.5765 606.12ZM76.8061 620.509L74.9293 619.818L74.8585 620.01L74.8281 620.213L76.8061 620.509ZM71.2908 628.046L69.5024 627.151L69.5018 627.152L71.2908 628.046ZM62.135 643.268L61.2549 641.472L61.2546 641.472L62.135 643.268ZM33.5922 629.085L31.7018 628.432L31.7017 628.432L33.5922 629.085ZM46.8081 602.599L48.7701 602.987L48.8589 602.539L48.7439 602.096L46.8081 602.599ZM44.1075 587.981L46.1063 588.049L46.1063 588.049L44.1075 587.981ZM45.0101 578.07L46.9735 577.69L46.9735 577.689L45.0101 578.07ZM39.4583 557.779L37.4854 558.107L37.4854 558.107L39.4583 557.779ZM37.5946 522.09L35.5973 522.195L35.5973 522.195L37.5946 522.09ZM35.7103 491.111L33.712 491.028L33.712 491.029L35.7103 491.111ZM37.1155 474.885L35.1372 474.592L35.1371 474.592L37.1155 474.885ZM39.3705 456.199L41.3682 456.102L41.3682 456.102L39.3705 456.199ZM34.1133 438.9L36.1083 438.759L36.1083 438.759L34.1133 438.9ZM35.4788 412.208L33.4937 412.451L33.4937 412.451L35.4788 412.208ZM32.645 397.02L34.6165 396.684L34.6154 396.678L32.645 397.02ZM28.9618 375.574L26.9955 375.939L26.9955 375.94L28.9618 375.574ZM26.2311 366.533L28.2277 366.416L28.2277 366.416L26.2311 366.533ZM24.6855 341.704L22.693 341.877L22.693 341.877L24.6855 341.704ZM24.5287 328.718L22.5306 328.804L22.5317 328.83L22.5335 328.856L24.5287 328.718ZM22.7059 319.241L24.7056 319.207L24.7056 319.207L22.7059 319.241ZM23.4228 305.824L21.4262 305.94L21.4262 305.94L23.4228 305.824ZM21.265 289.872L23.264 289.934L23.264 289.934L21.265 289.872ZM27.0339 268.546L29.0217 268.767L29.0763 268.276L28.8959 267.816L27.0339 268.546ZM23.6329 256.993L25.6326 256.962L25.6326 256.962L23.6329 256.993ZM26.3557 236.344L24.3953 236.74L24.3953 236.74L26.3557 236.344ZM15.4904 196.092L13.6008 196.747L13.6008 196.747L15.4904 196.092ZM4.95934 168.241L3.06096 168.87L3.06098 168.87L4.95934 168.241ZM4.59132 128.601L2.76592 127.784L2.76592 127.784L4.59132 128.601ZM34.8531 103.736L35.9056 105.437L35.9056 105.437L34.8531 103.736ZM52.9883 90.2117L54.8346 90.9805L54.8346 90.9804L52.9883 90.2117ZM51.9146 68.8866L53.8534 68.3956L53.6552 67.6128L52.969 67.1871L51.9146 68.8866ZM42.8991 56.0893L44.8482 55.6406L44.8482 55.6406L42.8991 56.0893ZM77.5752 189.841L75.7752 190.713L76.6668 192.553L78.487 191.621L77.5752 189.841ZM66.0185 166.473L67.8164 165.597L67.8163 165.597L66.0185 166.473ZM58.6 154.254L60.0984 152.929L56.8643 155.248L58.6 154.254ZM78.9028 185.024L77.0768 185.84L77.929 187.747L79.7973 186.813L78.9028 185.024ZM113.101 162.427L114.411 163.938L114.458 163.898L114.502 163.855L113.101 162.427ZM116.526 164.559L115.246 163.022L115.162 163.092L115.087 163.17L116.526 164.559ZM123.453 157.823L124.887 159.217L124.9 159.203L124.912 159.19L123.453 157.823ZM121.19 154.488L122.591 155.915L122.679 155.829L122.756 155.732L121.19 154.488ZM130.977 143.383L132.637 144.498L132.637 144.498L130.977 143.383ZM100.497 218.352L99.2522 216.787L99.2342 216.801L99.2166 216.816L100.497 218.352ZM132.813 185.89L134.397 187.111V187.111L132.813 185.89ZM156.337 155.274L158.209 155.976L160.707 149.311L155.104 153.699L156.337 155.274ZM148.132 169.411L149.819 170.485L149.819 170.485L148.132 169.411ZM111.43 215.281L112.78 216.757H112.78L111.43 215.281ZM101.158 224.434L99.9898 222.81L99.8785 222.89L99.7792 222.985L101.158 224.434ZM54.3845 219.944L53.1039 221.48L53.1277 221.5L53.1521 221.519L54.3845 219.944ZM78.0584 238.534L78.0533 240.534H78.0534L78.0584 238.534ZM54.852 226.183L56.2663 224.769L56.135 224.638L55.9818 224.533L54.852 226.183ZM24.7527 196.194L23.0201 197.193L23.0202 197.193L24.7527 196.194ZM25.1398 193.869L25.2236 191.871L23.9951 191.819L23.3946 192.892L25.1398 193.869ZM29.8081 197.803L31.3315 196.507L31.3313 196.507L29.8081 197.803ZM46.0196 45.0917L48.0082 44.8788C46.6454 32.1459 44.8701 23.5962 52.8531 13.7942L51.3024 12.5312L49.7516 11.2682C40.526 22.5959 42.7152 33.0114 44.0309 45.3045L46.0196 45.0917ZM51.3024 12.5312L52.8532 13.7941C57.6532 7.90002 65.6645 4.65011 74.2052 4.08755C82.7427 3.52521 91.4414 5.67803 97.4122 10.1336L98.6084 8.53068L99.8045 6.92777C92.9135 1.78558 83.2147 -0.514546 73.9423 0.0962034C64.6731 0.706742 55.4623 4.25595 49.7516 11.2682L51.3024 12.5312ZM98.6084 8.53068L97.4122 10.1335C99.4661 11.6664 101.485 14.5611 103.144 17.9658C104.782 21.3288 105.943 24.9314 106.414 27.6329L108.385 27.2893L110.355 26.9457C109.811 23.8268 108.519 19.867 106.74 16.2142C104.981 12.6032 102.62 9.02869 99.8046 6.92784L98.6084 8.53068ZM108.385 27.2893L106.399 27.527C106.865 31.4258 106.953 35.4423 107.147 39.6568C107.339 43.8198 107.636 48.1202 108.553 52.3368L110.508 51.9114L112.462 51.4861C111.62 47.6188 111.333 43.6024 111.143 39.4725C110.955 35.394 110.86 31.1415 110.37 27.0516L108.385 27.2893ZM110.508 51.9114L108.553 52.3369C108.703 53.0259 108.678 54.0741 108.422 55.4631C108.172 56.8176 107.732 58.3379 107.193 59.8943C106.113 63.0068 104.695 66.0877 103.799 67.9944L105.609 68.8449L107.419 69.6955C108.321 67.7757 109.818 64.5316 110.972 61.2049C111.549 59.5417 112.055 57.8138 112.355 56.1896C112.649 54.5998 112.778 52.9388 112.462 51.486L110.508 51.9114ZM105.609 68.8449L103.789 68.0156C103.15 69.4178 102.661 71.0196 102.212 72.461C101.744 73.9619 101.311 75.3195 100.762 76.4828L102.571 77.3357L104.38 78.1886C105.067 76.7332 105.576 75.1092 106.031 73.6513C106.504 72.1339 106.916 70.7995 107.429 69.6742L105.609 68.8449ZM102.571 77.3357L100.762 76.483C99.8999 78.3127 97.5999 82.7334 95.9931 87.1293C95.1884 89.3309 94.5087 91.65 94.2758 93.7428C94.0532 95.7429 94.1795 98.0485 95.6067 99.7054L97.1221 98.4002L98.6374 97.0949C98.3414 96.7513 98.0597 95.9062 98.2513 94.1852C98.4325 92.5568 98.9892 90.584 99.75 88.5025C101.274 84.3321 103.422 80.2212 104.381 78.1884L102.571 77.3357ZM97.1221 98.4002L95.6065 99.7052C95.8708 100.012 96.1593 100.297 96.4692 100.558L97.7572 99.0283L99.0452 97.4982C98.8989 97.3751 98.7627 97.2404 98.6377 97.0952L97.1221 98.4002ZM97.7572 99.0283L96.4671 100.557C97.5709 101.488 99.5933 102.43 101.749 103.306C104.002 104.223 106.719 105.189 109.452 106.118C115.014 108.009 120.503 109.703 122.882 110.65L123.621 108.792L124.361 106.934C121.864 105.94 116.067 104.142 110.739 102.331C108.027 101.409 105.399 100.473 103.256 99.6011C101.015 98.6896 99.5901 97.9582 99.0472 97.5L97.7572 99.0283ZM123.621 108.792L122.882 110.65C124.424 111.264 126.098 111.693 127.36 112.103C128.711 112.543 130.011 113.072 131.412 114.023L132.535 112.367L133.658 110.712C131.839 109.478 130.159 108.807 128.597 108.299C126.946 107.762 125.773 107.495 124.361 106.934L123.621 108.792ZM132.535 112.367L130.535 112.36C130.531 113.497 130.555 115.801 130.517 118.095C130.499 119.236 130.465 120.342 130.408 121.26C130.347 122.242 130.267 122.827 130.207 123.039L132.134 123.577L134.06 124.114C134.248 123.441 134.341 122.455 134.4 121.51C134.463 120.502 134.498 119.327 134.517 118.16C134.555 115.84 134.531 113.425 134.535 112.375L132.535 112.367ZM135.18 119.235L137.145 119.609C137.475 117.874 137.967 114.659 138.643 111.36C138.974 109.748 139.33 108.22 139.698 106.995C139.883 106.382 140.06 105.879 140.226 105.495C140.308 105.305 140.38 105.161 140.439 105.058C140.501 104.95 140.531 104.917 140.521 104.928L139.023 103.603L137.525 102.278C137.1 102.759 136.788 103.366 136.554 103.91C136.305 104.485 136.077 105.147 135.868 105.843C135.449 107.236 135.065 108.9 134.725 110.557C134.06 113.796 133.489 117.426 133.215 118.86L135.18 119.235ZM139.023 103.603L139.924 105.389C140.089 105.306 140.224 105.234 140.334 105.176C140.458 105.109 140.508 105.081 140.566 105.051C140.696 104.983 140.506 105.103 140.213 105.141C140.066 105.16 139.952 105.153 139.9 105.148C139.862 105.144 139.853 105.14 139.924 105.154C140.04 105.176 140.319 105.235 140.689 105.297L141.017 103.324L141.344 101.351C141.04 101.3 140.88 101.264 140.678 101.226C140.542 101.199 140.147 101.115 139.694 101.175C139.218 101.237 138.855 101.432 138.712 101.507C138.498 101.619 138.412 101.671 138.122 101.818L139.023 103.603ZM141.017 103.324L139.858 104.954C140.956 105.734 141.207 106.505 141.345 107.339C141.385 107.581 141.413 107.821 141.447 108.107C141.478 108.372 141.517 108.7 141.577 109.021C141.695 109.654 141.945 110.567 142.712 111.312L144.104 109.876L145.497 108.44C145.619 108.558 145.574 108.634 145.509 108.288C145.478 108.12 145.453 107.924 145.42 107.639C145.388 107.374 145.35 107.038 145.292 106.686C145.037 105.145 144.39 103.267 142.175 101.693L141.017 103.324ZM144.104 109.876L145.247 111.517C146.515 110.635 147.435 109.3 148.115 108.26C148.892 107.069 149.375 106.243 149.918 105.674L148.471 104.294L147.023 102.914C146.147 103.833 145.36 105.162 144.765 106.073C144.073 107.134 143.52 107.846 142.962 108.234L144.104 109.876ZM148.471 104.294L149.918 105.674C152.738 102.716 155.606 99.1055 159.038 96.236C162.423 93.4064 165.812 91.7968 169.368 92.4335L169.72 90.4648L170.073 88.4961C164.761 87.5451 160.173 90.0736 156.473 93.1672C152.82 96.2209 149.497 100.319 147.023 102.914L148.471 104.294ZM169.72 90.4648L169.368 92.4335C170.573 92.6493 171.205 93.1518 171.588 93.7198C172.013 94.3497 172.266 95.2681 172.294 96.4748C172.349 98.918 171.465 101.82 170.613 103.701L172.435 104.526L174.257 105.351C175.239 103.181 176.367 99.6563 176.293 96.3834C176.255 94.732 175.907 92.9701 174.904 91.4833C173.86 89.9345 172.238 88.8839 170.073 88.4961L169.72 90.4648ZM172.435 104.526L171.067 105.985C172.024 106.882 173.248 107.956 173.892 108.7L175.404 107.391L176.916 106.082C176.09 105.128 174.561 103.778 173.803 103.067L172.435 104.526ZM175.404 107.391L173.484 106.831C172.542 110.058 171.383 112.801 170.154 115.548C168.934 118.274 167.615 121.066 166.454 124.232L168.331 124.92L170.209 125.609C171.308 122.612 172.544 120.001 173.805 117.182C175.057 114.386 176.304 111.445 177.324 107.951L175.404 107.391ZM168.331 124.92L166.454 124.232C165.226 127.578 164.432 131.179 163.621 134.609C162.796 138.095 161.944 141.453 160.602 144.589L162.441 145.376L164.28 146.163C165.772 142.676 166.689 139.014 167.513 135.53C168.35 131.992 169.084 128.676 170.209 125.609L168.331 124.92ZM162.441 145.376L160.602 144.589C158.635 149.186 157.488 150.078 155.057 154.32L156.792 155.315L158.527 156.309C160.566 152.751 162.218 150.982 164.28 146.163L162.441 145.376ZM156.792 155.315L155.11 156.397C160.794 165.231 162.231 168.874 162.146 172.556C162.101 174.477 161.64 176.51 160.887 179.456C160.144 182.36 159.154 186.024 158.192 190.99L160.155 191.371L162.119 191.751C163.054 186.926 164.01 183.388 164.762 180.447C165.504 177.548 166.088 175.092 166.145 172.648C166.261 167.6 164.118 163.006 158.474 154.233L156.792 155.315ZM160.155 191.371L161.833 192.46C170.473 179.154 175.704 157.121 176.917 141.686L174.923 141.529L172.929 141.373C171.742 156.477 166.608 177.761 158.478 190.281L160.155 191.371ZM174.923 141.529L176.913 141.732C177.192 138.986 176.934 135.856 176.801 133.083C176.661 130.183 176.648 127.597 177.221 125.451L175.289 124.935L173.356 124.419C172.604 127.235 172.667 130.395 172.806 133.275C172.95 136.283 173.173 138.969 172.933 141.327L174.923 141.529ZM175.289 124.935L177.221 125.451C179.628 116.438 184.586 107.193 189.228 98.7409L187.475 97.7781L185.722 96.8152C181.115 105.204 175.909 114.863 173.356 124.419L175.289 124.935ZM187.475 97.7781L189.228 98.7409C189.228 98.741 189.231 98.7364 189.237 98.7275C189.244 98.7185 189.254 98.7056 189.27 98.6891C189.301 98.6556 189.349 98.6116 189.418 98.5617C189.56 98.4596 189.76 98.3562 190.002 98.2761C190.53 98.1019 190.987 98.1219 191.192 98.1886L191.812 96.2871L192.432 94.3855C191.214 93.9887 189.857 94.1118 188.748 94.4778C187.658 94.8376 186.407 95.5689 185.722 96.8152L187.475 97.7781ZM191.812 96.2871L190.282 97.5752C190.498 97.8319 190.749 98.5153 190.598 100.013C190.456 101.427 189.998 103.148 189.373 105.002C188.752 106.841 188.006 108.7 187.329 110.396C186.678 112.028 186.042 113.622 185.746 114.762L187.681 115.265L189.617 115.769C189.835 114.931 190.351 113.614 191.044 111.879C191.711 110.207 192.501 108.243 193.163 106.281C193.82 104.334 194.391 102.277 194.578 100.413C194.757 98.6337 194.639 96.5402 193.342 94.9989L191.812 96.2871ZM187.681 115.265L188.297 117.168C194.431 115.183 199.549 111.575 203.835 106.898L202.361 105.547L200.886 104.195C196.988 108.45 192.438 111.624 187.066 113.363L187.681 115.265ZM202.361 105.547L203.835 106.898C204.967 105.662 205.743 104.073 206.349 102.532C206.953 100.998 207.477 99.2653 207.974 97.7733C208.494 96.2137 209.001 94.8537 209.616 93.7674C210.227 92.6852 210.848 92.0521 211.501 91.7354L210.629 89.9357L209.757 88.136C208.089 88.9444 206.956 90.3441 206.134 91.7984C205.314 93.2486 204.706 94.9289 204.179 96.5094C203.63 98.1576 203.179 99.6653 202.627 101.067C202.078 102.463 201.518 103.506 200.886 104.195L202.361 105.547ZM210.629 89.9357L210.669 91.9353C211.086 91.9268 211.82 92.2089 212.736 93.8289C213.607 95.3692 214.323 97.5999 214.865 100.133C215.949 105.205 216.198 110.808 215.989 112.879L217.979 113.08L219.969 113.281C220.23 110.697 219.924 104.665 218.777 99.297C218.202 96.6103 217.383 93.9196 216.217 91.8595C215.097 89.8789 213.293 87.8813 210.588 87.9361L210.629 89.9357ZM217.979 113.08L215.989 112.879C215.317 119.542 212.497 124.572 208.617 129.119C204.627 133.795 199.804 137.679 194.877 142.476L196.273 143.909L197.668 145.342C202.222 140.907 207.529 136.556 211.66 131.715C215.9 126.746 219.193 120.978 219.969 113.281L217.979 113.08ZM196.273 143.909L194.871 142.483C193.381 143.947 192.446 145.907 191.83 147.944C191.21 149.995 190.868 152.272 190.661 154.511C190.453 156.756 190.375 159.039 190.309 161.098C190.241 163.194 190.186 165.012 190.034 166.455L192.023 166.665L194.012 166.874C194.183 165.252 194.241 163.262 194.307 161.227C194.374 159.157 194.449 156.988 194.644 154.879C194.839 152.766 195.149 150.788 195.659 149.103C196.172 147.404 196.847 146.149 197.674 145.336L196.273 143.909ZM192.023 166.665L190.031 166.494C189.669 170.721 189.877 174.763 190.033 178.652C190.192 182.578 190.301 186.382 189.814 190.368L191.8 190.611L193.785 190.853C194.315 186.511 194.189 182.417 194.03 178.491C193.87 174.526 193.681 170.759 194.016 166.835L192.023 166.665ZM191.8 190.611L189.814 190.368C189.241 195.065 187.656 204.721 184.713 213.194C183.238 217.44 181.466 221.261 179.396 224.002C177.314 226.759 175.164 228.133 172.943 228.192L172.997 230.191L173.05 232.191C177.017 232.085 180.166 229.619 182.588 226.412C185.021 223.19 186.958 218.922 188.492 214.506C191.566 205.653 193.195 195.684 193.785 190.853L191.8 190.611ZM172.997 230.191L172.943 228.192C172.128 228.214 170.797 227.991 169.103 227.488C167.452 226.997 165.6 226.284 163.801 225.438C161.999 224.59 160.292 223.63 158.915 222.658C157.493 221.655 156.602 220.764 156.218 220.106L154.49 221.114L152.763 222.123C153.585 223.531 155.043 224.822 156.609 225.927C158.221 227.064 160.142 228.137 162.098 229.057C164.058 229.979 166.098 230.768 167.964 231.322C169.789 231.864 171.601 232.229 173.05 232.191L172.997 230.191ZM154.49 221.114L156.001 219.805C153.544 216.969 151.523 214.186 149.532 211.348C147.553 208.527 145.576 205.611 143.275 202.635L141.693 203.858L140.11 205.082C142.337 207.961 144.232 210.759 146.257 213.645C148.27 216.514 150.385 219.431 152.979 222.424L154.49 221.114ZM141.693 203.858L139.694 203.793C139.632 205.686 139.606 207.484 139.516 209.305L141.513 209.403L143.511 209.502C143.602 207.645 143.633 205.715 143.691 203.924L141.693 203.858ZM141.513 209.403L139.516 209.305C138.294 234.036 141.943 259.317 147.511 283.297L149.459 282.845L151.407 282.392C145.886 258.616 142.314 233.73 143.511 209.502L141.513 209.403ZM149.459 282.845L147.513 283.305C148.983 289.523 150.556 295.714 152.231 301.882L154.161 301.358L156.091 300.834C154.428 294.708 152.866 288.559 151.405 282.384L149.459 282.845ZM154.161 301.358L152.231 301.883C153.187 305.396 154.189 308.632 154.99 312.055L156.937 311.599L158.885 311.143C158.064 307.636 156.998 304.167 156.091 300.832L154.161 301.358ZM156.937 311.599L154.99 312.054C155.373 313.692 155.339 315.486 155.24 317.528C155.147 319.467 154.985 321.719 155.31 323.818L157.286 323.513L159.263 323.207C159.015 321.605 159.133 319.843 159.236 317.721C159.333 315.703 159.41 313.391 158.885 311.143L156.937 311.599ZM157.286 323.513L155.311 323.826C157.434 337.195 160.15 350.149 161.428 363.428L163.419 363.236L165.409 363.045C164.117 349.609 161.343 336.305 159.261 323.199L157.286 323.513ZM163.419 363.236L161.428 363.428C162.585 375.457 163.313 387.554 164.193 399.659L166.188 399.514L168.183 399.369C167.308 387.331 166.573 375.136 165.409 363.045L163.419 363.236ZM166.188 399.514L164.193 399.659C164.855 408.761 165.522 417.036 164.801 426.009L166.795 426.169L168.788 426.329C169.538 416.994 168.84 408.401 168.183 399.369L166.188 399.514ZM166.795 426.169L164.801 426.009C164.384 431.206 163.789 436.742 163.963 442.178L165.962 442.114L167.961 442.05C167.796 436.904 168.358 431.684 168.788 426.329L166.795 426.169ZM165.962 442.114L163.964 442.205C164.078 444.695 164.735 447.135 165.321 449.324C165.928 451.595 166.462 453.608 166.563 455.581L168.56 455.479L170.558 455.377C170.431 452.906 169.769 450.474 169.185 448.291C168.579 446.027 168.051 444.007 167.96 442.023L165.962 442.114ZM168.56 455.479L166.563 455.581C166.669 457.647 166.319 459.653 165.883 461.897C165.459 464.078 164.942 466.519 164.914 469.118L166.913 469.14L168.913 469.162C168.937 467.002 169.364 464.951 169.809 462.661C170.243 460.432 170.691 457.987 170.558 455.377L168.56 455.479ZM166.913 469.14L164.914 469.118C164.88 472.131 165.679 475.179 166.413 477.894C167.178 480.727 167.865 483.182 167.932 485.44L169.931 485.381L171.93 485.322C171.846 482.488 170.995 479.518 170.274 476.85C169.521 474.065 168.887 471.538 168.913 469.162L166.913 469.14ZM169.931 485.381L167.932 485.44C168.1 491.144 167.957 496.898 167.782 502.707C167.606 508.499 167.398 514.356 167.445 520.179L169.445 520.163L171.445 520.146C171.399 514.419 171.603 508.655 171.78 502.828C171.955 497.019 172.102 491.158 171.93 485.322L169.931 485.381ZM169.445 520.163L167.445 520.171C167.492 530.821 168.918 541.473 169.471 551.788L171.468 551.681L173.465 551.574C172.884 540.74 171.491 530.759 171.445 520.154L169.445 520.163ZM171.468 551.681L169.471 551.788C169.632 554.804 169.176 557.31 168.577 559.894C167.986 562.439 167.208 565.218 166.925 568.41L168.917 568.586L170.91 568.763C171.16 565.933 171.834 563.553 172.473 560.798C173.104 558.082 173.656 555.147 173.465 551.574L171.468 551.681ZM168.917 568.586L166.925 568.41C166.708 570.863 167.791 572.797 168.606 574.36C169.46 575.995 170.288 577.628 170.554 580.01L172.542 579.788L174.53 579.565C174.175 576.394 173.034 574.199 172.152 572.509C171.233 570.747 170.813 569.857 170.91 568.763L168.917 568.586ZM172.542 579.788L170.554 580.01C170.908 583.173 170.529 586.674 170.125 590.325C169.736 593.846 169.306 597.604 169.794 600.821L171.771 600.521L173.749 600.221C173.355 597.63 173.694 594.447 174.101 590.766C174.494 587.215 174.942 583.253 174.53 579.566L172.542 579.788ZM171.771 600.521L169.84 601.041C171.815 608.381 177.631 615.712 182.306 620.758L183.774 619.399L185.241 618.04C180.612 613.044 175.404 606.327 173.703 600.002L171.771 600.521ZM183.774 619.399L182.307 620.758C183.613 622.168 184.976 623.508 186.173 624.736C187.398 625.994 188.499 627.182 189.435 628.421C191.267 630.846 192.461 633.448 192.502 636.994L194.502 636.971L196.502 636.948C196.449 632.361 194.849 628.95 192.626 626.009C191.534 624.564 190.291 623.231 189.038 621.945C187.756 620.63 186.504 619.403 185.24 618.039L183.774 619.399ZM194.502 636.971L192.502 636.994C192.523 638.812 192.037 640.048 191.331 640.94C190.603 641.86 189.514 642.572 188.089 643.094C185.176 644.162 181.371 644.263 178.069 644.156L178.005 646.155L177.94 648.154C181.267 648.261 185.762 648.208 189.466 646.85C191.349 646.159 193.148 645.09 194.467 643.422C195.81 641.727 196.532 639.568 196.502 636.949L194.502 636.971ZM178.005 646.155L178.069 644.156C175.045 644.059 171.519 643.499 168.247 642.382C164.956 641.258 162.073 639.623 160.163 637.476L158.669 638.805L157.174 640.134C159.704 642.979 163.287 644.915 166.954 646.167C170.639 647.425 174.561 648.045 177.94 648.154L178.005 646.155ZM158.669 638.805L160.157 637.469C159.177 636.378 157.981 634.608 156.617 632.717C155.964 631.813 155.285 630.899 154.624 630.12C153.992 629.374 153.257 628.603 152.479 628.111L151.41 629.801L150.342 631.492C150.578 631.641 150.989 632.017 151.573 632.706C152.128 633.361 152.733 634.17 153.373 635.057C154.594 636.75 156.011 638.839 157.18 640.141L158.669 638.805ZM151.41 629.801L152.479 628.111C150.36 626.771 148.118 625.803 146.1 624.945C144.024 624.063 142.236 623.316 140.733 622.375C139.27 621.46 138.204 620.437 137.536 619.087C136.865 617.732 136.493 615.842 136.789 613.023L134.8 612.814L132.811 612.605C132.459 615.955 132.857 618.652 133.951 620.862C135.048 623.077 136.743 624.598 138.612 625.767C140.44 626.91 142.557 627.786 144.535 628.627C146.57 629.492 148.531 630.347 150.341 631.492L151.41 629.801ZM134.8 612.814L136.789 613.022C136.86 612.338 136.984 610.677 137.065 609.042C137.106 608.22 137.137 607.385 137.144 606.667C137.151 606.004 137.142 605.281 137.06 604.778L135.086 605.1L133.112 605.422C133.112 605.422 133.112 605.424 133.113 605.43C133.114 605.435 133.115 605.442 133.116 605.452C133.118 605.472 133.121 605.499 133.123 605.533C133.129 605.603 133.134 605.693 133.138 605.803C133.146 606.025 133.148 606.302 133.145 606.625C133.138 607.271 133.11 608.049 133.07 608.844C132.991 610.442 132.872 612.022 132.811 612.605L134.8 612.814ZM135.086 605.1L137.06 604.778C136.56 601.719 135.65 599.294 134.904 597.068C134.154 594.83 133.522 592.676 133.358 589.857L131.362 589.973L129.365 590.088C129.559 593.435 130.322 595.984 131.111 598.339C131.904 600.706 132.677 602.762 133.112 605.423L135.086 605.1ZM131.362 589.973L133.358 589.857C133.141 586.109 133.652 582.308 134.245 578.375C134.826 574.515 135.498 570.472 135.45 566.559L133.45 566.584L131.45 566.608C131.493 570.121 130.89 573.792 130.289 577.779C129.7 581.694 129.121 585.875 129.365 590.088L131.362 589.973ZM133.45 566.584L135.45 566.559C135.423 564.356 134.611 560.848 133.756 557.597C133.316 555.926 132.844 554.249 132.416 552.741C131.984 551.221 131.603 549.892 131.332 548.878L129.399 549.394L127.467 549.91C127.749 550.964 128.143 552.339 128.568 553.833C128.995 555.338 129.458 556.983 129.887 558.615C130.77 561.968 131.43 564.987 131.45 566.608L133.45 566.584ZM129.399 549.394L131.33 548.871C129.951 543.781 128.957 538.596 128.355 533.356L126.368 533.584L124.381 533.812C125.006 539.252 126.038 544.634 127.469 549.917L129.399 549.394ZM126.368 533.584L128.354 533.345C126.225 515.656 125.903 495.891 125.682 477.883L123.683 477.908L121.683 477.932C121.903 495.909 122.223 515.887 124.382 533.823L126.368 533.584ZM123.683 477.908L125.682 477.883C125.62 472.764 124.422 468.749 122.96 464.949C121.475 461.086 119.85 457.725 118.611 453.378L116.688 453.926L114.764 454.475C116.066 459.042 117.879 462.881 119.227 466.385C120.599 469.952 121.628 473.47 121.683 477.932L123.683 477.908ZM116.688 453.926L118.634 453.465C118.065 451.067 117.771 448.467 117.478 445.704C117.189 442.987 116.9 440.105 116.325 437.345L114.367 437.753L112.409 438.161C112.935 440.685 113.205 443.349 113.5 446.127C113.79 448.86 114.106 451.705 114.742 454.388L116.688 453.926ZM114.367 437.753L116.325 437.345C112.045 416.802 106.723 397.92 98.5408 378.401L96.6963 379.174L94.8518 379.947C102.911 399.173 108.166 417.798 112.409 438.161L114.367 437.753ZM96.6963 379.174L94.7875 378.577C90.3183 392.864 88.6709 405.561 87.0998 420.176L89.0884 420.39L91.0769 420.604C92.6435 406.03 94.2599 393.662 98.6051 379.771L96.6963 379.174ZM89.0884 420.39L87.0998 420.176C85.7081 433.118 84.0245 446.376 82.7943 459.439L84.7855 459.626L86.7766 459.814C88.0051 446.769 89.6723 433.665 91.0769 420.604L89.0884 420.39ZM84.7855 459.626L82.7943 459.439C82.6706 460.751 82.2188 462.29 81.6174 463.986C81.0604 465.558 80.2971 467.459 79.8047 468.989L81.7085 469.601L83.6124 470.214C84.0976 468.707 84.7246 467.193 85.3875 465.323C86.0061 463.578 86.6039 461.648 86.7766 459.814L84.7855 459.626ZM81.7085 469.601L79.8966 468.755C78.3519 472.061 78.2942 475.32 78.573 478.336C78.7104 479.823 78.94 481.335 79.1266 482.729C79.3176 484.156 79.4719 485.512 79.4985 486.85L81.4981 486.81L83.4977 486.77C83.4664 485.196 83.2863 483.656 83.0912 482.198C82.8916 480.707 82.6834 479.346 82.556 477.968C82.3053 475.256 82.4106 472.823 83.5205 470.448L81.7085 469.601ZM81.4981 486.81L79.4985 486.85C79.5386 488.878 79.191 491.016 78.8005 493.405C78.4218 495.721 78.0037 498.27 78.0557 500.812L80.0553 500.771L82.0548 500.73C82.0116 498.615 82.3593 496.428 82.7481 494.05C83.125 491.744 83.5464 489.231 83.4977 486.771L81.4981 486.81ZM80.0553 500.771L78.0557 500.812C78.3439 514.896 79.1574 529.136 79.6381 543.121L81.6369 543.053L83.6357 542.984C83.15 528.852 82.3428 514.802 82.0548 500.73L80.0553 500.771ZM81.6369 543.053L79.6381 543.121C79.7439 546.204 79.0933 549.731 78.3379 553.543C77.6038 557.247 76.7663 561.238 76.708 564.879L78.7077 564.911L80.7075 564.943C80.7587 561.745 81.5009 558.159 82.2616 554.32C83.001 550.589 83.7601 546.606 83.6357 542.984L81.6369 543.053ZM78.7077 564.911L76.7087 564.848C76.561 569.502 78.1486 573.677 79.405 577.498C80.693 581.417 81.7355 585.186 81.1532 589.634L83.1363 589.894L85.1194 590.154C85.8261 584.754 84.5204 580.251 83.2049 576.249C81.8578 572.151 80.5866 568.758 80.7067 564.975L78.7077 564.911ZM83.1363 589.894L81.1533 589.634C80.6919 593.158 80.0347 595.434 79.2719 597.648C78.509 599.862 77.5603 602.217 76.6458 605.598L78.5765 606.12L80.5071 606.642C81.3745 603.435 82.2234 601.361 83.0537 598.951C83.8841 596.541 84.6159 593.999 85.1194 590.154L83.1363 589.894ZM78.5765 606.12L76.6458 605.598C76.0872 607.663 76.0839 610.407 75.9878 612.788C75.8847 615.343 75.6852 617.765 74.9293 619.818L76.8061 620.509L78.683 621.2C79.6779 618.498 79.8813 615.508 79.9845 612.949C80.0948 610.217 80.1012 608.143 80.5071 606.642L78.5765 606.12ZM76.8061 620.509L74.8281 620.213C74.7096 621.006 74.055 621.937 72.84 623.207C72.3469 623.723 71.5961 624.462 71.0781 625.02C70.5219 625.62 69.9056 626.346 69.5024 627.151L71.2908 628.046L73.0791 628.942C73.2148 628.671 73.5016 628.289 74.0108 627.74C74.5583 627.15 75.0352 626.699 75.7304 625.972C76.8921 624.758 78.4563 622.997 78.7841 620.805L76.8061 620.509ZM71.2908 628.046L69.5018 627.152C68.7632 628.63 68.2083 630.174 67.7099 631.62C67.1986 633.105 66.7548 634.459 66.2053 635.749C65.1344 638.264 63.7823 640.233 61.2549 641.472L62.135 643.268L63.0151 645.064C66.7399 643.238 68.6163 640.297 69.8855 637.317C70.5061 635.86 71.0103 634.321 71.4918 632.924C71.9862 631.489 72.469 630.163 73.0798 628.94L71.2908 628.046ZM62.135 643.268L61.2546 641.472C55.8975 644.098 47.6149 645.246 41.6275 643.548C38.6733 642.71 36.5242 641.254 35.3988 639.212C34.2875 637.195 33.9455 634.189 35.4826 629.738L33.5922 629.085L31.7017 628.432C29.9293 633.565 30.0672 637.825 31.8955 641.143C33.7097 644.435 36.9601 646.381 40.5358 647.396C47.608 649.402 56.9063 648.058 63.0154 645.063L62.135 643.268ZM33.5922 629.085L35.4826 629.738C36.9286 625.552 39.5872 621.591 42.3337 617.186C45.0105 612.892 47.7339 608.222 48.7701 602.987L46.8081 602.599L44.8462 602.211C43.9672 606.651 41.6221 610.767 38.9394 615.069C36.3264 619.26 33.3346 623.705 31.7018 628.432L33.5922 629.085ZM46.8081 602.599L48.7439 602.096C47.5049 597.327 45.9588 592.409 46.1063 588.049L44.1075 587.981L42.1086 587.914C41.9358 593.019 43.7322 598.713 44.8724 603.102L46.8081 602.599ZM44.1075 587.981L46.1063 588.049C46.1488 586.791 46.4638 585.187 46.7625 583.255C47.0327 581.508 47.305 579.4 46.9735 577.69L45.0101 578.07L43.0466 578.451C43.2253 579.373 43.0942 580.803 42.8095 582.644C42.5532 584.301 42.1618 586.337 42.1086 587.914L44.1075 587.981ZM45.0101 578.07L46.9735 577.689C46.2877 574.152 45.1434 570.678 44.0742 567.349C42.9903 563.975 41.9768 560.731 41.4312 557.451L39.4583 557.779L37.4854 558.107C38.0856 561.716 39.1896 565.222 40.2659 568.573C41.357 571.97 42.4157 575.197 43.0466 578.451L45.0101 578.07ZM39.4583 557.779L41.4313 557.451C40.4731 551.686 40.1649 545.841 40.0225 539.908C39.8814 534.025 39.9038 527.951 39.5919 521.986L37.5946 522.09L35.5973 522.195C35.9059 528.094 35.8787 533.961 36.0237 540.004C36.1674 545.996 36.4808 552.063 37.4854 558.107L39.4583 557.779ZM37.5946 522.09L39.5919 521.986C39.3181 516.747 38.73 511.539 38.2781 506.468C37.8226 501.358 37.4966 496.312 37.7085 491.194L35.7103 491.111L33.712 491.029C33.4891 496.411 33.8341 501.664 34.2939 506.823C34.7571 512.022 35.3286 517.053 35.5973 522.195L37.5946 522.09ZM35.7103 491.111L37.7085 491.194C37.9337 485.769 38.3045 480.511 39.094 475.178L37.1155 474.885L35.1371 474.592C34.3188 480.12 33.94 485.533 33.712 491.028L35.7103 491.111ZM37.1155 474.885L39.0939 475.178C39.9895 469.135 41.6967 462.864 41.3682 456.102L39.3705 456.199L37.3729 456.296C37.6761 462.538 36.1255 467.923 35.1372 474.592L37.1155 474.885ZM39.3705 456.199L41.3682 456.102C41.1981 452.605 39.8249 449.421 38.6195 446.644C37.3581 443.737 36.2864 441.282 36.1083 438.759L34.1133 438.9L32.1182 439.041C32.3539 442.379 33.7612 445.497 34.9502 448.236C36.1951 451.104 37.2436 453.639 37.3729 456.296L39.3705 456.199ZM34.1133 438.9L36.1083 438.759C35.8199 434.677 36.3936 430.395 36.9527 425.822C37.5009 421.339 38.0315 416.591 37.4639 411.964L35.4788 412.208L33.4937 412.451C33.9933 416.524 33.5362 420.807 32.9823 425.336C32.4394 429.777 31.7967 434.49 32.1182 439.041L34.1133 438.9ZM35.4788 412.208L37.4639 411.964C37.1521 409.421 36.6408 406.797 36.1125 404.23C35.579 401.638 35.0325 399.122 34.6165 396.684L32.645 397.02L30.6734 397.357C31.1045 399.883 31.6737 402.505 32.1946 405.037C32.7209 407.594 33.2031 410.082 33.4937 412.451L35.4788 412.208ZM32.645 397.02L34.6154 396.678C33.3819 389.577 32.2572 382.356 30.9281 375.208L28.9618 375.574L26.9955 375.94C28.3216 383.072 29.4223 390.154 30.6745 397.362L32.645 397.02ZM28.9618 375.574L30.9281 375.208C30.6349 373.631 29.9004 371.784 29.3351 370.272C28.7079 368.596 28.2799 367.31 28.2277 366.416L26.2311 366.533L24.2345 366.649C24.3286 368.26 25.0133 370.136 25.5886 371.674C26.2257 373.377 26.7834 374.798 26.9955 375.939L28.9618 375.574ZM26.2311 366.533L28.2277 366.416C27.7468 358.2 27.3997 349.833 26.678 341.531L24.6855 341.704L22.693 341.877C23.4082 350.105 23.7483 358.342 24.2345 366.65L26.2311 366.533ZM24.6855 341.704L26.678 341.531C26.5052 339.541 26.5356 337.459 26.5792 335.259C26.622 333.096 26.678 330.809 26.524 328.58L24.5287 328.718L22.5335 328.856C22.6728 330.871 22.6238 332.966 22.5799 335.18C22.5369 337.356 22.499 339.644 22.693 341.877L24.6855 341.704ZM24.5287 328.718L26.5269 328.631C26.4498 326.85 25.9289 325.099 25.5181 323.615C25.0838 322.046 24.7302 320.652 24.7056 319.207L22.7059 319.241L20.7062 319.275C20.7405 321.288 21.2332 323.129 21.6631 324.682C22.1164 326.319 22.4775 327.578 22.5306 328.804L24.5287 328.718ZM22.7059 319.241L24.7056 319.207C24.6741 317.367 24.8923 315.049 25.1108 312.595C25.3214 310.228 25.5359 307.702 25.4194 305.707L23.4228 305.824L21.4262 305.94C21.5221 307.583 21.3443 309.794 21.1265 312.24C20.9166 314.599 20.6702 317.171 20.7062 319.276L22.7059 319.241ZM23.4228 305.824L25.4194 305.708C25.2266 302.4 24.5911 299.907 24.0836 297.59C23.5786 295.284 23.1677 293.037 23.264 289.934L21.265 289.872L19.2659 289.81C19.1548 293.389 19.6412 296.003 20.1762 298.446C20.7087 300.877 21.2559 303.019 21.4262 305.94L23.4228 305.824ZM21.265 289.872L23.264 289.934C23.3819 286.133 24.5229 282.784 25.8283 279.374C27.0978 276.058 28.6052 272.514 29.0217 268.767L27.0339 268.546L25.0462 268.325C24.7007 271.433 23.4527 274.391 22.0927 277.944C20.7687 281.402 19.4061 285.289 19.2659 289.81L21.265 289.872ZM27.0339 268.546L28.8959 267.816C28.2962 266.286 27.4803 264.223 26.8058 262.164C26.1122 260.046 25.6515 258.171 25.6326 256.962L23.6329 256.993L21.6331 257.024C21.6623 258.896 22.3072 261.28 23.0045 263.409C23.7211 265.597 24.5817 267.77 25.1719 269.276L27.0339 268.546ZM23.6329 256.993L25.6326 256.962C25.5781 253.484 26.5612 250.795 27.512 247.514C28.4556 244.258 29.2665 240.654 28.3161 235.948L26.3557 236.344L24.3953 236.74C25.157 240.511 24.5461 243.378 23.6701 246.4C22.8013 249.398 21.5668 252.795 21.6331 257.024L23.6329 256.993ZM26.3557 236.344L28.3161 235.948C25.3904 221.463 22.2127 209.37 17.3799 195.436L15.4904 196.092L13.6008 196.747C18.3672 210.489 21.5002 222.407 24.3953 236.74L26.3557 236.344ZM15.4904 196.092L17.38 195.436C15.7686 190.791 13.8403 185.962 11.9727 181.252C10.0967 176.52 8.28223 171.907 6.8577 167.611L4.95934 168.241L3.06098 168.87C4.52731 173.292 6.38437 178.009 8.25423 182.726C10.1324 187.463 12.0242 192.201 13.6008 196.747L15.4904 196.092ZM4.95934 168.241L6.85772 167.611C5.37125 163.128 4.25433 155.751 4.038 148.296C3.81999 140.784 4.53239 133.627 6.41673 129.418L4.59132 128.601L2.76592 127.784C0.491409 132.864 -0.181407 140.794 0.039685 148.412C0.262468 156.089 1.40897 163.887 3.06096 168.87L4.95934 168.241ZM4.59132 128.601L6.41672 129.418C8.7641 124.175 13.3672 119.829 18.8864 115.925C24.4492 111.989 30.52 108.77 35.9056 105.437L34.8531 103.736L33.8006 102.036C28.7428 105.166 22.2499 108.645 16.5762 112.659C10.8589 116.704 5.55276 121.559 2.76592 127.784L4.59132 128.601ZM34.8531 103.736L35.9056 105.437C37.2086 104.631 38.7595 103.858 40.4993 102.998C42.2072 102.153 44.076 101.234 45.8728 100.18C49.4468 98.085 53.04 95.2906 54.8346 90.9805L52.9883 90.2117L51.1419 89.4429C49.8506 92.5443 47.1733 94.7811 43.8497 96.7296C42.1977 97.6982 40.4609 98.5541 38.7262 99.412C37.0233 100.254 35.2946 101.111 33.8005 102.036L34.8531 103.736ZM52.9883 90.2117L54.8346 90.9804C55.4318 89.5461 55.6762 87.6635 55.7552 85.7575C55.8363 83.8024 55.7489 81.6183 55.5692 79.466C55.2109 75.173 54.4698 70.8296 53.8534 68.3956L51.9146 68.8866L49.9758 69.3775C50.5287 71.5609 51.2395 75.6824 51.5831 79.7987C51.7544 81.8511 51.8306 83.8579 51.7587 85.5918C51.6847 87.3749 51.4597 88.6795 51.1419 89.443L52.9883 90.2117ZM51.9146 68.8866L52.969 67.1871C50.5508 65.6868 48.8686 64.1704 47.6275 62.4019C46.3836 60.6293 45.5047 58.4922 44.8482 55.6406L42.8991 56.0893L40.9501 56.538C41.6843 59.7269 42.7291 62.3853 44.3533 64.6996C45.9803 67.0181 48.1104 68.88 50.8602 70.5861L51.9146 68.8866ZM42.8991 56.0893L44.8482 55.6406C44.2864 53.2006 44.1496 51.649 44.4477 50.4052C44.7228 49.2575 45.4398 48.1016 47.261 46.6597L46.0196 45.0917L44.7781 43.5236C42.5245 45.3079 41.11 47.1692 40.5579 49.473C40.0288 51.6807 40.3692 54.0149 40.9501 56.538L42.8991 56.0893ZM77.5752 189.841L79.3751 188.969C75.674 181.328 71.5258 173.21 67.8164 165.597L66.0185 166.473L64.2206 167.349C68.0651 175.24 71.9885 182.895 75.7752 190.713L77.5752 189.841ZM66.0185 166.473L67.8163 165.597C66.9347 163.788 65.5361 161.545 64.1573 159.383C62.7457 157.169 61.3435 155.021 60.3358 153.261L58.6 154.254L56.8643 155.248C57.9342 157.117 59.4179 159.389 60.7845 161.533C62.1839 163.728 63.4558 165.78 64.2207 167.349L66.0185 166.473ZM58.6 154.254L57.1017 155.579C63.0754 162.336 66.1889 165.769 68.7665 169.581C71.3256 173.365 73.3747 177.555 77.0768 185.84L78.9028 185.024L80.7288 184.208C77.0342 175.94 74.8594 171.45 72.08 167.34C69.3191 163.257 65.9796 159.582 60.0984 152.929L58.6 154.254ZM78.9028 185.024L79.7973 186.813C94.2746 179.573 102.366 174.385 114.411 163.938L113.101 162.427L111.791 160.916C100.028 171.117 92.2243 176.126 78.0083 183.235L78.9028 185.024ZM116.526 164.559L115.087 163.17C104.297 174.348 90.6912 180.876 76.6634 188.061L77.5752 189.841L78.487 191.621C92.3219 184.535 106.615 177.706 117.965 165.948L116.526 164.559ZM135.18 119.235L133.18 119.225C133.149 125.34 133.508 129.659 133.782 132.951C134.06 136.306 134.215 138.337 133.908 140.181C133.619 141.916 132.891 143.603 131.091 146.062C129.257 148.566 126.412 151.738 121.993 156.455L123.453 157.823L124.912 159.19C129.307 154.498 132.319 151.155 134.318 148.425C136.35 145.651 137.429 143.386 137.853 140.838C138.259 138.4 138.033 135.819 137.768 132.62C137.497 129.357 137.15 125.179 137.18 119.245L135.18 119.235ZM121.19 154.488L122.756 155.732C124.237 153.867 125.82 152.326 127.54 150.564C129.234 148.827 131.003 146.929 132.637 144.498L130.977 143.383L129.316 142.267C127.891 144.389 126.329 146.077 124.677 147.77C123.049 149.439 121.267 151.174 119.624 153.244L121.19 154.488ZM130.977 143.383L132.637 144.498C135.013 140.96 134.76 136.479 134.366 132.873C134.153 130.928 133.902 129.291 133.791 127.705C133.68 126.131 133.749 125.009 134.02 124.242L132.134 123.577L130.248 122.911C129.691 124.49 129.682 126.301 129.801 127.985C129.918 129.657 130.203 131.603 130.39 133.308C130.793 136.999 130.789 140.074 129.316 142.267L130.977 143.383ZM123.453 157.823L122.019 156.429C119.738 158.775 117.607 161.055 115.246 163.022L116.526 164.559L117.806 166.096C120.373 163.957 122.692 161.475 124.887 159.217L123.453 157.823ZM113.101 162.427L114.502 163.855L122.591 155.915L121.19 154.488L119.789 153.06L111.7 161L113.101 162.427ZM100.497 218.352L101.742 219.917C116.598 208.1 122.398 202.677 134.397 187.111L132.813 185.89L131.229 184.669C119.46 199.936 113.901 205.134 99.2522 216.787L100.497 218.352ZM132.813 185.89L134.397 187.111C138 182.436 141.889 176.272 145.746 170.715C149.689 165.036 153.636 159.929 157.57 156.848L156.337 155.274L155.104 153.699C150.643 157.192 146.397 162.763 142.46 168.434C138.438 174.228 134.762 180.085 131.229 184.669L132.813 185.89ZM156.337 155.274L154.464 154.572C152.736 159.182 149.366 163.748 146.445 168.337L148.132 169.411L149.819 170.485C152.507 166.263 156.287 161.104 158.209 155.976L156.337 155.274ZM148.132 169.411L146.445 168.337C135.957 184.81 124.407 200.703 110.08 213.805L111.43 215.281L112.78 216.757C127.488 203.306 139.259 187.072 149.819 170.485L148.132 169.411ZM111.43 215.281L110.08 213.805C106.755 216.846 103.366 220.381 99.9898 222.81L101.158 224.434L102.326 226.057C105.953 223.447 109.748 219.529 112.78 216.757L111.43 215.281ZM54.3845 219.944L53.1521 221.519C59.9766 226.859 64.9677 230.71 68.9216 233.121C72.8727 235.53 76.1451 236.733 79.4688 236.284C82.7184 235.844 85.5886 233.867 88.8412 231.147C90.4944 229.765 92.3403 228.105 94.4428 226.236C96.5565 224.356 98.9609 222.236 101.778 219.888L100.497 218.352L99.2166 216.816C96.3503 219.205 93.9083 221.358 91.7848 223.247C89.6502 225.145 87.8683 226.747 86.2754 228.079C83.0359 230.787 80.9409 232.048 78.9322 232.32C76.9975 232.582 74.7182 231.971 71.0041 229.706C67.2928 227.443 62.5051 223.759 55.617 218.369L54.3845 219.944ZM101.158 224.434L99.7792 222.985C97.4456 225.205 93.4464 228.661 89.2252 231.544C87.1147 232.986 84.9892 234.256 83.018 235.159C81.0141 236.076 79.3326 236.537 78.0634 236.534L78.0584 238.534L78.0534 240.534C80.1682 240.539 82.4684 239.81 84.6832 238.796C86.9307 237.767 89.2606 236.364 91.4814 234.847C95.9227 231.813 100.089 228.211 102.536 225.883L101.158 224.434ZM78.0584 238.534L78.0634 236.534C77.0059 236.531 75.3634 236.119 73.2761 235.287C71.2419 234.476 68.9713 233.343 66.7276 232.072C62.1934 229.505 58.0233 226.526 56.2663 224.769L54.852 226.183L53.4377 227.597C55.5735 229.733 60.1095 232.922 64.7569 235.553C67.1039 236.882 69.5428 238.105 71.7948 239.003C73.9936 239.88 76.2138 240.529 78.0533 240.534L78.0584 238.534ZM54.852 226.183L55.9818 224.533C52.2752 221.996 46.0954 216.758 40.1926 211.038C34.256 205.286 28.8369 199.272 26.4852 195.195L24.7527 196.194L23.0202 197.193C25.6789 201.803 31.4689 208.155 37.4091 213.911C43.3831 219.699 49.7477 225.113 53.7222 227.834L54.852 226.183ZM24.7527 196.194L26.4852 195.195C26.6176 195.425 26.6221 195.598 26.6224 195.607C26.6231 195.625 26.6204 195.585 26.6432 195.48C26.6646 195.382 26.7001 195.265 26.7475 195.143C26.7948 195.021 26.845 194.918 26.8851 194.846L25.1398 193.869L23.3946 192.892C23.1315 193.363 22.8753 193.985 22.735 194.628C22.6185 195.163 22.463 196.227 23.0201 197.193L24.7527 196.194ZM25.1398 193.869L25.056 195.867C24.9685 195.864 25.045 195.842 25.3216 196.017C25.581 196.181 25.8954 196.441 26.2555 196.794C26.9957 197.52 27.6575 198.362 28.2849 199.099L29.8081 197.803L31.3313 196.507C30.8355 195.925 29.9679 194.833 29.0571 193.939C28.5916 193.482 28.0502 193.01 27.4589 192.636C26.8849 192.273 26.1158 191.908 25.2236 191.871L25.1398 193.869ZM29.8081 197.803L28.2848 199.099C35.7454 207.869 44.5802 214.375 53.1039 221.48L54.3845 219.944L55.6652 218.408C46.9015 211.102 38.5 204.934 31.3315 196.507L29.8081 197.803Z" fill="white" mask="url(#path-1-outside-1_400_16)"/>
</svg>
