<svg width="306" height="685" viewBox="0 0 306 685" fill="none" xmlns="http://www.w3.org/2000/svg">
<mask id="path-1-outside-1_400_20" maskUnits="userSpaceOnUse" x="0" y="-0.935913" width="306" height="686" fill="black">
<rect fill="white" y="-0.935913" width="306" height="686"/>
<path d="M25.9789 2.06409C27.9697 2.41771 34.7147 6.28396 36.4662 7.64258C40.8644 16.9651 39.7331 23.7443 35.1866 32.5572C32.7318 37.3156 32.6576 40.9103 34.2627 45.9293C36.7569 53.7271 40.3085 61.1903 44.4427 68.2613C47.9812 74.2088 52.0974 79.6771 55.5545 85.6756C61.3494 95.7305 64.9134 106.751 70.4825 116.897C74.3106 123.872 79.9017 129.844 83.6458 136.901C88.7437 146.919 93.1225 157.34 98.956 166.977C102.405 172.354 109.168 174.796 114.681 177.312C119.374 179.454 126.34 182.417 123.778 173.728C122.092 167.591 117.359 163.344 113.638 158.465C112.105 156.455 108.663 152.054 107.825 149.754C105.302 142.827 101.497 136.776 101.131 129.219C100.106 108.08 117.992 91.352 138.738 91.8241C145.174 91.9707 150.187 94.1183 153.85 99.5697C155.535 102.204 156.262 105.271 157.712 108.045C165.822 123.56 172.725 142.709 167.163 160.153C166.412 162.509 165.585 164.898 164.942 167.267C164.077 170.455 163.441 178.448 166.997 179.909C170.524 179.581 173.775 174.659 176.724 172.683C179.991 170.495 183.875 168.851 187.268 166.727C191.973 163.782 196.327 160.303 201.031 157.391C204.02 155.54 207.89 153.922 210.442 151.562C211.401 150.675 230.959 121.569 232.213 119.21C235.676 112.697 237.961 105.722 241.764 99.3417C246.936 90.6676 253.317 82.7457 258.978 74.3937C263.39 67.8852 267.073 61.0786 270.624 54.0725C272.776 49.8278 275.118 45.5596 276.286 40.9163C279.012 30.074 272.529 24.1883 273.174 15.4955C273.416 12.2183 275.623 9.90496 278.023 7.89383C280.02 6.22096 282.786 4.06171 285.53 4.36546C290.546 4.92083 298.45 10.5927 301.475 14.6307C302.514 16.0171 303.132 17.6405 303.186 19.3775C303.235 20.9438 299.752 36.5832 299.091 38.1747C296.975 43.2713 293.591 47.7308 291.594 52.9456C289.878 57.4227 288.719 62.2688 287.381 66.8776C282.97 82.0666 279.072 98.453 271.794 112.569C269.141 117.714 265.881 122.673 262.554 127.409C260.483 130.357 258.173 133.227 256.435 136.388L238.113 170.233C235.806 174.406 233.257 178.157 230.933 182.265C229.89 184 229.831 189.27 228.593 190.625C224.105 195.534 218.981 199.815 216.554 206.319C215.706 208.592 213.624 215.75 213.862 218.084C214.63 225.593 217.44 233.192 218.865 240.625C223.621 265.25 229.103 289.38 236.663 313.325C237.389 315.622 238.112 317.879 238.927 320.175C241.264 326.762 245.392 333.355 246.541 340.195C246.759 341.774 242.878 343.469 241.26 344.631C241.15 344.86 241.017 345.134 240.863 345.452C242.655 351.25 245.83 360.415 247.689 365.894C251.672 375.887 252.718 387.01 255.347 397.176C260.346 415.176 259.282 432.666 259.875 450.996C260.252 462.659 259.5 471.606 257.225 483.032C255.805 490.165 256.406 499.78 254.303 506.65C250.502 519.066 244.05 531.002 238.18 542.504C233.924 551.046 229.729 559.619 225.596 568.221C224.145 571.217 222.9 574.304 221.87 577.469C220.942 580.262 217.017 593.62 215.629 594.902C207.573 602.339 207.671 598.836 208.122 611.564C209.469 613.855 210.234 614.661 212.001 616.619C221.001 625.311 233.844 627.835 243.171 635.62C247.741 639.437 246.316 645.531 239.78 646.877C229.978 648.895 219.558 646.619 210.087 643.806C204.918 642.28 200.065 639.73 194.749 638.691C184.342 636.651 177.014 638.256 167.431 632.957C163.686 624.246 169.432 611.515 171.946 603.407C173.727 597.666 173.583 591.884 176.613 585.299C178.144 581.976 182.336 574.945 183.036 572.421C186.378 560.372 188.762 549.284 193.381 537.539C195.468 532.345 197.624 527.181 199.848 522.047C202.005 517.127 205.508 510.659 206.224 505.461C206.812 501.194 204.597 495.572 204.191 491.136C203.612 487.289 206.337 481.885 205.518 478.214C202.1 462.895 196.616 448.056 194.216 432.449C188.202 441.606 184.48 450.347 180.09 460.319C171.446 479.939 163.309 499.72 153.491 518.8C150.365 524.879 147.728 531.336 144.483 537.366C142.09 541.817 139.078 545.961 136.768 550.465C132.051 560.312 128.43 571.075 124.005 580.982C121.86 585.797 119.549 590.534 117.076 595.184C115.426 598.266 113.693 601.217 112.127 604.364C108.105 612.445 110.138 621.921 106.719 629.601C105.256 632.886 100.522 637.881 98.1607 641.32C97.4578 651.835 101.652 660.43 102.728 670.604C102.908 672.752 102.902 677.481 101.149 678.974C93.839 685.214 77.3742 683.755 70.4363 677.387C68.2644 675.396 66.0748 671.691 65.577 669.029C63.9816 660.494 65.0905 651.194 65.7068 642.576C65.9191 639.756 67.2174 635.207 67.3089 632.684C67.5415 626.264 66.5234 621.666 68.4013 615.336C70.7315 607.487 76.9206 598.232 78.7096 590.455C82.3985 574.416 85.4513 557.579 91.5038 542.207C94.9891 533.357 100.018 523.907 104.361 515.395C105.935 512.309 109.001 509.054 110.599 505.63C112.543 501.464 112.215 496.079 113.875 492.216C115.604 488.192 118.541 484.78 119.661 480.257C121.698 472.026 121.447 463.304 122.037 454.866C123.059 440.249 123.512 425.646 124.467 411.032C125.554 394.42 129.858 379.87 129.119 363.141C126.901 362.459 124.042 361.577 123.672 358.896C122.238 350.267 122.393 341.504 121.045 332.864C118.124 314.145 114.439 294.361 110.115 275.942C107.718 265.734 99.5018 254.633 95.0476 245.172C92.7815 240.357 90.7165 235.517 88.2448 230.831C85.9093 226.903 83.0404 223.049 80.5605 219.166C76.6318 213.047 73.2437 206.598 70.4341 199.892C66.0058 189.5 63.6849 178.713 60.0894 168.187C56.34 157.211 52.255 145.295 48.1181 134.468C44.3849 124.697 37.5326 115.108 33.1902 104.765C29.1014 95.0262 27.2067 88.0613 23.9007 78.2405C20.498 68.3056 16.9081 58.4356 13.1329 48.6361C11.3109 43.8653 9.9095 39.722 6.95242 35.6052C4.15627 31.7123 0.382187 22.0655 2.7432 17.6513C6.88303 9.91134 18.2045 4.93659 25.9789 2.06409Z"/>
</mask>
<path d="M25.9789 2.06409C27.9697 2.41771 34.7147 6.28396 36.4662 7.64258C40.8644 16.9651 39.7331 23.7443 35.1866 32.5572C32.7318 37.3156 32.6576 40.9103 34.2627 45.9293C36.7569 53.7271 40.3085 61.1903 44.4427 68.2613C47.9812 74.2088 52.0974 79.6771 55.5545 85.6756C61.3494 95.7305 64.9134 106.751 70.4825 116.897C74.3106 123.872 79.9017 129.844 83.6458 136.901C88.7437 146.919 93.1225 157.34 98.956 166.977C102.405 172.354 109.168 174.796 114.681 177.312C119.374 179.454 126.34 182.417 123.778 173.728C122.092 167.591 117.359 163.344 113.638 158.465C112.105 156.455 108.663 152.054 107.825 149.754C105.302 142.827 101.497 136.776 101.131 129.219C100.106 108.08 117.992 91.352 138.738 91.8241C145.174 91.9707 150.187 94.1183 153.85 99.5697C155.535 102.204 156.262 105.271 157.712 108.045C165.822 123.56 172.725 142.709 167.163 160.153C166.412 162.509 165.585 164.898 164.942 167.267C164.077 170.455 163.441 178.448 166.997 179.909C170.524 179.581 173.775 174.659 176.724 172.683C179.991 170.495 183.875 168.851 187.268 166.727C191.973 163.782 196.327 160.303 201.031 157.391C204.02 155.54 207.89 153.922 210.442 151.562C211.401 150.675 230.959 121.569 232.213 119.21C235.676 112.697 237.961 105.722 241.764 99.3417C246.936 90.6676 253.317 82.7457 258.978 74.3937C263.39 67.8852 267.073 61.0786 270.624 54.0725C272.776 49.8278 275.118 45.5596 276.286 40.9163C279.012 30.074 272.529 24.1883 273.174 15.4955C273.416 12.2183 275.623 9.90496 278.023 7.89383C280.02 6.22096 282.786 4.06171 285.53 4.36546C290.546 4.92083 298.45 10.5927 301.475 14.6307C302.514 16.0171 303.132 17.6405 303.186 19.3775C303.235 20.9438 299.752 36.5832 299.091 38.1747C296.975 43.2713 293.591 47.7308 291.594 52.9456C289.878 57.4227 288.719 62.2688 287.381 66.8776C282.97 82.0666 279.072 98.453 271.794 112.569C269.141 117.714 265.881 122.673 262.554 127.409C260.483 130.357 258.173 133.227 256.435 136.388L238.113 170.233C235.806 174.406 233.257 178.157 230.933 182.265C229.89 184 229.831 189.27 228.593 190.625C224.105 195.534 218.981 199.815 216.554 206.319C215.706 208.592 213.624 215.75 213.862 218.084C214.63 225.593 217.44 233.192 218.865 240.625C223.621 265.25 229.103 289.38 236.663 313.325C237.389 315.622 238.112 317.879 238.927 320.175C241.264 326.762 245.392 333.355 246.541 340.195C246.759 341.774 242.878 343.469 241.26 344.631C241.15 344.86 241.017 345.134 240.863 345.452C242.655 351.25 245.83 360.415 247.689 365.894C251.672 375.887 252.718 387.01 255.347 397.176C260.346 415.176 259.282 432.666 259.875 450.996C260.252 462.659 259.5 471.606 257.225 483.032C255.805 490.165 256.406 499.78 254.303 506.65C250.502 519.066 244.05 531.002 238.18 542.504C233.924 551.046 229.729 559.619 225.596 568.221C224.145 571.217 222.9 574.304 221.87 577.469C220.942 580.262 217.017 593.62 215.629 594.902C207.573 602.339 207.671 598.836 208.122 611.564C209.469 613.855 210.234 614.661 212.001 616.619C221.001 625.311 233.844 627.835 243.171 635.62C247.741 639.437 246.316 645.531 239.78 646.877C229.978 648.895 219.558 646.619 210.087 643.806C204.918 642.28 200.065 639.73 194.749 638.691C184.342 636.651 177.014 638.256 167.431 632.957C163.686 624.246 169.432 611.515 171.946 603.407C173.727 597.666 173.583 591.884 176.613 585.299C178.144 581.976 182.336 574.945 183.036 572.421C186.378 560.372 188.762 549.284 193.381 537.539C195.468 532.345 197.624 527.181 199.848 522.047C202.005 517.127 205.508 510.659 206.224 505.461C206.812 501.194 204.597 495.572 204.191 491.136C203.612 487.289 206.337 481.885 205.518 478.214C202.1 462.895 196.616 448.056 194.216 432.449C188.202 441.606 184.48 450.347 180.09 460.319C171.446 479.939 163.309 499.72 153.491 518.8C150.365 524.879 147.728 531.336 144.483 537.366C142.09 541.817 139.078 545.961 136.768 550.465C132.051 560.312 128.43 571.075 124.005 580.982C121.86 585.797 119.549 590.534 117.076 595.184C115.426 598.266 113.693 601.217 112.127 604.364C108.105 612.445 110.138 621.921 106.719 629.601C105.256 632.886 100.522 637.881 98.1607 641.32C97.4578 651.835 101.652 660.43 102.728 670.604C102.908 672.752 102.902 677.481 101.149 678.974C93.839 685.214 77.3742 683.755 70.4363 677.387C68.2644 675.396 66.0748 671.691 65.577 669.029C63.9816 660.494 65.0905 651.194 65.7068 642.576C65.9191 639.756 67.2174 635.207 67.3089 632.684C67.5415 626.264 66.5234 621.666 68.4013 615.336C70.7315 607.487 76.9206 598.232 78.7096 590.455C82.3985 574.416 85.4513 557.579 91.5038 542.207C94.9891 533.357 100.018 523.907 104.361 515.395C105.935 512.309 109.001 509.054 110.599 505.63C112.543 501.464 112.215 496.079 113.875 492.216C115.604 488.192 118.541 484.78 119.661 480.257C121.698 472.026 121.447 463.304 122.037 454.866C123.059 440.249 123.512 425.646 124.467 411.032C125.554 394.42 129.858 379.87 129.119 363.141C126.901 362.459 124.042 361.577 123.672 358.896C122.238 350.267 122.393 341.504 121.045 332.864C118.124 314.145 114.439 294.361 110.115 275.942C107.718 265.734 99.5018 254.633 95.0476 245.172C92.7815 240.357 90.7165 235.517 88.2448 230.831C85.9093 226.903 83.0404 223.049 80.5605 219.166C76.6318 213.047 73.2437 206.598 70.4341 199.892C66.0058 189.5 63.6849 178.713 60.0894 168.187C56.34 157.211 52.255 145.295 48.1181 134.468C44.3849 124.697 37.5326 115.108 33.1902 104.765C29.1014 95.0262 27.2067 88.0613 23.9007 78.2405C20.498 68.3056 16.9081 58.4356 13.1329 48.6361C11.3109 43.8653 9.9095 39.722 6.95242 35.6052C4.15627 31.7123 0.382187 22.0655 2.7432 17.6513C6.88303 9.91134 18.2045 4.93659 25.9789 2.06409Z" fill="#012457"/>
<path d="M25.9789 2.06409C27.9697 2.41771 34.7147 6.28396 36.4662 7.64258C40.8644 16.9651 39.7331 23.7443 35.1866 32.5572C32.7318 37.3156 32.6576 40.9103 34.2627 45.9293C36.7569 53.7271 40.3085 61.1903 44.4427 68.2613C47.9812 74.2088 52.0974 79.6771 55.5545 85.6756C61.3494 95.7305 64.9134 106.751 70.4825 116.897C74.3106 123.872 79.9017 129.844 83.6458 136.901C88.7437 146.919 93.1225 157.34 98.956 166.977C102.405 172.354 109.168 174.796 114.681 177.312C119.374 179.454 126.34 182.417 123.778 173.728C122.092 167.591 117.359 163.344 113.638 158.465C112.105 156.455 108.663 152.054 107.825 149.754C105.302 142.827 101.497 136.776 101.131 129.219C100.106 108.08 117.992 91.352 138.738 91.8241C145.174 91.9707 150.187 94.1183 153.85 99.5697C155.535 102.204 156.262 105.271 157.712 108.045C165.822 123.56 172.725 142.709 167.163 160.153C166.412 162.509 165.585 164.898 164.942 167.267C164.077 170.455 163.441 178.448 166.997 179.909C170.524 179.581 173.775 174.659 176.724 172.683C179.991 170.495 183.875 168.851 187.268 166.727C191.973 163.782 196.327 160.303 201.031 157.391C204.02 155.54 207.89 153.922 210.442 151.562C211.401 150.675 230.959 121.569 232.213 119.21C235.676 112.697 237.961 105.722 241.764 99.3417C246.936 90.6676 253.317 82.7457 258.978 74.3937C263.39 67.8852 267.073 61.0786 270.624 54.0725C272.776 49.8278 275.118 45.5596 276.286 40.9163C279.012 30.074 272.529 24.1883 273.174 15.4955C273.416 12.2183 275.623 9.90496 278.023 7.89383C280.02 6.22096 282.786 4.06171 285.53 4.36546C290.546 4.92083 298.45 10.5927 301.475 14.6307C302.514 16.0171 303.132 17.6405 303.186 19.3775C303.235 20.9438 299.752 36.5832 299.091 38.1747C296.975 43.2713 293.591 47.7308 291.594 52.9456C289.878 57.4227 288.719 62.2688 287.381 66.8776C282.97 82.0666 279.072 98.453 271.794 112.569C269.141 117.714 265.881 122.673 262.554 127.409C260.483 130.357 258.173 133.227 256.435 136.388L238.113 170.233C235.806 174.406 233.257 178.157 230.933 182.265C229.89 184 229.831 189.27 228.593 190.625C224.105 195.534 218.981 199.815 216.554 206.319C215.706 208.592 213.624 215.75 213.862 218.084C214.63 225.593 217.44 233.192 218.865 240.625C223.621 265.25 229.103 289.38 236.663 313.325C237.389 315.622 238.112 317.879 238.927 320.175C241.264 326.762 245.392 333.355 246.541 340.195C246.759 341.774 242.878 343.469 241.26 344.631C241.15 344.86 241.017 345.134 240.863 345.452C242.655 351.25 245.83 360.415 247.689 365.894C251.672 375.887 252.718 387.01 255.347 397.176C260.346 415.176 259.282 432.666 259.875 450.996C260.252 462.659 259.5 471.606 257.225 483.032C255.805 490.165 256.406 499.78 254.303 506.65C250.502 519.066 244.05 531.002 238.18 542.504C233.924 551.046 229.729 559.619 225.596 568.221C224.145 571.217 222.9 574.304 221.87 577.469C220.942 580.262 217.017 593.62 215.629 594.902C207.573 602.339 207.671 598.836 208.122 611.564C209.469 613.855 210.234 614.661 212.001 616.619C221.001 625.311 233.844 627.835 243.171 635.62C247.741 639.437 246.316 645.531 239.78 646.877C229.978 648.895 219.558 646.619 210.087 643.806C204.918 642.28 200.065 639.73 194.749 638.691C184.342 636.651 177.014 638.256 167.431 632.957C163.686 624.246 169.432 611.515 171.946 603.407C173.727 597.666 173.583 591.884 176.613 585.299C178.144 581.976 182.336 574.945 183.036 572.421C186.378 560.372 188.762 549.284 193.381 537.539C195.468 532.345 197.624 527.181 199.848 522.047C202.005 517.127 205.508 510.659 206.224 505.461C206.812 501.194 204.597 495.572 204.191 491.136C203.612 487.289 206.337 481.885 205.518 478.214C202.1 462.895 196.616 448.056 194.216 432.449C188.202 441.606 184.48 450.347 180.09 460.319C171.446 479.939 163.309 499.72 153.491 518.8C150.365 524.879 147.728 531.336 144.483 537.366C142.09 541.817 139.078 545.961 136.768 550.465C132.051 560.312 128.43 571.075 124.005 580.982C121.86 585.797 119.549 590.534 117.076 595.184C115.426 598.266 113.693 601.217 112.127 604.364C108.105 612.445 110.138 621.921 106.719 629.601C105.256 632.886 100.522 637.881 98.1607 641.32C97.4578 651.835 101.652 660.43 102.728 670.604C102.908 672.752 102.902 677.481 101.149 678.974C93.839 685.214 77.3742 683.755 70.4363 677.387C68.2644 675.396 66.0748 671.691 65.577 669.029C63.9816 660.494 65.0905 651.194 65.7068 642.576C65.9191 639.756 67.2174 635.207 67.3089 632.684C67.5415 626.264 66.5234 621.666 68.4013 615.336C70.7315 607.487 76.9206 598.232 78.7096 590.455C82.3985 574.416 85.4513 557.579 91.5038 542.207C94.9891 533.357 100.018 523.907 104.361 515.395C105.935 512.309 109.001 509.054 110.599 505.63C112.543 501.464 112.215 496.079 113.875 492.216C115.604 488.192 118.541 484.78 119.661 480.257C121.698 472.026 121.447 463.304 122.037 454.866C123.059 440.249 123.512 425.646 124.467 411.032C125.554 394.42 129.858 379.87 129.119 363.141C126.901 362.459 124.042 361.577 123.672 358.896C122.238 350.267 122.393 341.504 121.045 332.864C118.124 314.145 114.439 294.361 110.115 275.942C107.718 265.734 99.5018 254.633 95.0476 245.172C92.7815 240.357 90.7165 235.517 88.2448 230.831C85.9093 226.903 83.0404 223.049 80.5605 219.166C76.6318 213.047 73.2437 206.598 70.4341 199.892C66.0058 189.5 63.6849 178.713 60.0894 168.187C56.34 157.211 52.255 145.295 48.1181 134.468C44.3849 124.697 37.5326 115.108 33.1902 104.765C29.1014 95.0262 27.2067 88.0613 23.9007 78.2405C20.498 68.3056 16.9081 58.4356 13.1329 48.6361C11.3109 43.8653 9.9095 39.722 6.95242 35.6052C4.15627 31.7123 0.382187 22.0655 2.7432 17.6513C6.88303 9.91134 18.2045 4.93659 25.9789 2.06409Z" stroke="white" stroke-width="4" mask="url(#path-1-outside-1_400_20)"/>
</svg>
