<svg width="78" height="88" viewBox="0 0 78 88" fill="none" xmlns="http://www.w3.org/2000/svg">
<path fill-rule="evenodd" clip-rule="evenodd" d="M68.6176 0.638267L25.4376 43.8183L34.6485 53.0292C35.6017 53.9823 36.0782 55.244 35.9883 56.5878L34.8477 73.9078L37.1797 76.2398C37.6094 76.6695 38.2578 76.7476 38.7774 76.4351C39.297 76.1187 39.5274 75.5093 39.3477 74.9312L37.7579 69.8374L45.5704 67.7436L43.4766 59.9311L51.2891 57.8373L49.1953 50.0248L57.0078 47.931L54.914 40.1185L62.7265 38.0247L60.6327 30.2122L68.4452 28.1184L66.3514 20.3059L74.1639 18.2121L72.0701 10.3996L76.1053 9.31758C76.8905 9.10664 77.453 8.53242 77.6522 7.74728C77.8514 6.96214 77.621 6.18478 77.0311 5.63008L71.6483 0.575377C70.789 -0.213683 69.4496 -0.189853 68.6176 0.638267ZM0.594627 64.8453L20.2706 45.1693C21.0636 44.3763 22.3604 44.3763 23.1573 45.1693L32.8331 54.8451C33.2628 55.2748 33.4659 55.8138 33.4269 56.4232L32.0167 77.8292C31.9815 78.3448 31.7862 78.7745 31.4229 79.1378L23.1534 87.4073C22.3605 88.2002 21.0636 88.2002 20.2667 87.4073L0.594728 67.7273C-0.198242 66.9343 -0.198343 65.6383 0.594627 64.8453ZM9.99693 65.5757L13.6375 61.9351C14.4305 61.1422 15.7273 61.1422 16.5242 61.9351L26.0672 71.4781C26.8602 72.2711 26.8602 73.5719 26.0672 74.3648L22.4266 78.0054C21.6337 78.7984 20.3328 78.7984 19.5399 78.0054L9.99693 68.4624C9.20396 67.6695 9.20396 66.3686 9.99693 65.5757Z" fill="currentColor"/>
</svg>
